<?xml version="1.0" encoding="UTF-8"?>
<!-- Generator: visioncortex VTracer 0.6.3 -->
<svg version="1.1" xmlns="http://www.w3.org/2000/svg" width="1080" height="1080">
<path d="M0 0 C1.3 0 1.3 0 2.7 0 C95 0.2 184.4 34.9 252.4 97.3 C254.5 99.2 254.5 99.2 256.8 100.8 C257.7 101.5 257.7 101.5 258.6 102.2 C258.6 102.8 258.6 103.5 258.6 104.2 C259.6 104.5 260.5 104.8 261.6 105.2 C261.6 105.8 261.6 106.5 261.6 107.2 C262.4 107.6 262.4 107.6 263.3 107.9 C265.9 109.4 267.6 111 269.6 113.2 C269.6 113.8 269.6 114.5 269.6 115.2 C270.6 115.5 271.5 115.8 272.6 116.2 C274.1 117.7 274.1 117.7 275.7 119.6 C278.3 122.7 280.9 125.7 283.7 128.6 C290.1 135.8 295.8 143.5 301.6 151.2 C302.1 151.9 302.6 152.5 303.1 153.2 C350 216.5 375.2 295.1 374.9 373.8 C374.9 375.2 374.9 375.2 374.9 376.8 C374.8 393.4 374.1 409.7 371.6 426.2 C371.4 427.4 371.2 428.5 371 429.7 C360.5 496.7 333.4 558.6 290.6 611.2 C290.1 611.7 289.7 612.2 289.3 612.8 C274.3 631.2 257.6 648.6 238.9 663.3 C236.5 665.2 236.5 665.2 234.1 667.7 C231.6 670.1 229.3 671.7 226.4 673.5 C222.7 675.8 219.1 678.2 215.6 680.9 C212.1 683.5 208.5 685.9 204.8 688.1 C203.9 688.6 203 689.2 202.2 689.7 C200.5 690.7 198.7 691.7 197 692.7 C191.6 696 189.5 698.2 187.6 704.2 C184.8 705.6 182.6 705.3 179.6 705.2 C178.9 704.9 178.2 704.5 177.6 704.2 C175.5 705.2 173.5 706.3 171.6 707.4 C147.4 720.9 120.3 730.2 93.6 737.2 C92.7 737.4 91.9 737.6 91.1 737.8 C78.8 741 66.3 743.1 53.8 744.9 C53 745 52.3 745.2 51.5 745.3 C34.7 747.7 18 748.4 1.1 748.4 C-0.2 748.4 -0.2 748.4 -1.4 748.4 C-80.2 748.2 -158.8 723.3 -221.7 675.5 C-223.4 674.2 -225.1 673 -226.7 671.7 C-234.7 665.7 -242.3 659.2 -249.8 652.6 C-252.6 650.2 -255.4 647.8 -258.2 645.5 C-259.4 644.2 -259.4 644.2 -259.4 642.2 C-260.4 641.9 -261.4 641.5 -262.4 641.2 C-262.4 640.5 -262.4 639.9 -262.4 639.2 C-263.1 638.9 -263.7 638.7 -264.4 638.4 C-266.4 637.2 -266.4 637.2 -267.4 634.2 C-268.4 633.9 -269.4 633.5 -270.4 633.2 C-271.9 631.7 -271.9 631.7 -273.6 629.8 C-276.2 626.7 -278.8 623.7 -281.6 620.8 C-288 613.6 -293.7 605.9 -299.4 598.2 C-300 597.5 -300.5 596.7 -301.1 596 C-309.2 585.2 -316.4 574.1 -323.1 562.4 C-324.3 560.5 -325.4 558.6 -326.5 556.7 C-351.8 514.5 -366.1 464.8 -371.4 416.2 C-371.5 415.5 -371.6 414.8 -371.7 414.1 C-373.2 401.1 -373.8 388.3 -373.8 375.2 C-373.8 373.8 -373.8 373.8 -373.8 372.3 C-373.7 313.8 -359.8 255 -332.4 203.1 C-331.3 201 -330.3 198.9 -329.2 196.8 C-325 188.7 -320.5 180.8 -315.4 173.2 C-314.9 172.3 -314.3 171.4 -313.7 170.5 C-304.9 156.9 -295.2 143.9 -284.5 131.7 C-282.3 129.2 -282.3 129.2 -280.4 126.2 C-279.8 126.2 -279.1 126.2 -278.4 126.2 C-278.2 125.6 -277.9 125 -277.6 124.4 C-276.4 122.2 -275.1 120.4 -273.4 118.4 C-272.9 117.8 -272.4 117.2 -271.9 116.6 C-270.4 115.2 -270.4 115.2 -268.4 115.2 C-267.9 113.7 -267.9 113.7 -267.4 112.2 C-266.8 112.2 -266.1 112.2 -265.4 112.2 C-264.9 110.7 -264.9 110.7 -264.4 109.2 C-263.8 109.2 -263.1 109.2 -262.4 109.2 C-262.4 108.5 -262.4 107.9 -262.4 107.2 C-260.9 105.7 -260.9 105.7 -258.9 104 C-256.2 101.7 -253.6 99.4 -251.1 96.8 C-246.6 92.2 -241.5 88.2 -236.4 84.2 C-235.4 83.3 -234.3 82.5 -233.2 81.6 C-218.9 70.1 -203.9 59.9 -188 50.7 C-186.2 49.6 -184.4 48.6 -182.6 47.5 C-175.3 43.1 -167.9 39.4 -160.1 35.8 C-159.5 35.5 -158.9 35.3 -158.3 35 C-108.2 12 -55.2 -0.1 0 0 Z " fill="#FEFDFD" transform="translate(540.4375,197.8125)"/>
<path d="M0 0 C2.3 1.7 4.6 3.5 6.8 5.4 C11.2 4 14.3 1.5 17.7 -1.4 C20.3 -2.9 21.9 -3 24.8 -2.6 C26.6 -1.5 26.6 -1.5 27.8 0.4 C28.2 3.2 28.2 3.2 27.8 6.4 C25.4 8.7 25.4 8.7 22.3 10.7 C21.3 11.4 20.3 12.1 19.2 12.8 C18.4 13.3 17.6 13.8 16.8 14.4 C19.4 18.9 22 23.3 24.9 27.7 C25.8 29.4 25.8 29.4 25.8 31.4 C26.4 31.1 27.1 30.8 27.8 30.5 C32.9 28.3 37.1 26.5 42.8 27.4 C44.8 28.5 44.8 28.5 45.8 30.4 C45.6 34 45.4 35.7 42.8 38.4 C41.3 38.9 39.8 39.4 38.3 39.9 C36 40.6 33.9 41.3 31.8 42.4 C31.9 43.1 32.1 43.8 32.2 44.5 C36.2 66.5 36.2 66.5 32.8 76.4 C33.4 76.2 34 76 34.7 75.9 C39 75.2 43.4 74.9 47.8 75.4 C49.8 77.4 49.8 77.4 50.2 80.3 C49.8 83.4 49.8 83.4 48.3 85 C44.9 86.8 41.8 86.9 38.1 87 C37.4 87.1 36.7 87.1 35.9 87.1 C34.2 87.2 32.5 87.3 30.8 87.4 C30.4 89.1 30.4 89.1 30.1 91 C26.8 105.3 22.4 120.2 15.8 133.4 C17.1 133.3 18.4 133.3 19.7 133.3 C21.3 133.3 23 133.2 24.7 133.2 C25.5 133.2 26.4 133.2 27.2 133.2 C28 133.2 28.8 133.2 29.7 133.2 C30.8 133.1 30.8 133.1 31.9 133.1 C33.8 133.4 33.8 133.4 35.8 135.4 C36.1 138.9 36.1 138.9 35.8 142.4 C32.6 144.5 31.5 144.6 27.7 144.8 C26.7 144.8 25.7 144.8 24.7 144.9 C23.2 144.9 23.2 144.9 21.6 145 C20.6 145 19.5 145.1 18.5 145.1 C15.9 145.2 13.4 145.3 10.8 145.4 C7.1 153.3 3.3 161.3 -0.2 169.4 C0.4 169.5 1.1 169.6 1.8 169.7 C7.2 170.7 11.8 172 16.8 174.4 C17 177.7 17 177.7 16.8 181.4 C12.6 184.2 9.7 183.3 4.8 182.4 C1.1 181.5 -2.5 180.4 -6.2 179.4 C-6.4 180.1 -6.6 180.9 -6.9 181.7 C-8.6 186.5 -11 190.8 -13.4 195.2 C-13.9 196 -14.4 196.9 -14.9 197.7 C-17.7 202.8 -20.7 207.7 -24 212.5 C-25.4 214.4 -25.4 214.4 -26.2 217.4 C-25.6 217.5 -25.1 217.6 -24.5 217.7 C-10.9 220.7 -10.9 220.7 -9.2 222.4 C-8.7 227.6 -8.7 227.6 -10.3 230.2 C-13.3 232 -15.8 231.6 -19.2 231.4 C-22.9 230.3 -22.9 230.3 -26.6 228.9 C-27.3 228.6 -27.9 228.4 -28.6 228.1 C-30.1 227.6 -31.6 227 -33.2 226.4 C-33.4 227 -33.6 227.7 -33.9 228.3 C-35.6 232.4 -38 235.8 -40.4 239.5 C-40.9 240.2 -41.4 241 -41.9 241.8 C-44.1 245.1 -46.3 248.5 -48.5 251.8 C-49.1 252.8 -49.8 253.7 -50.4 254.7 C-51 255.6 -51.6 256.4 -52.1 257.3 C-53.6 259.5 -53.6 259.5 -52.2 262.4 C-50 264.2 -50 264.2 -47.4 265.9 C-46.6 266.5 -45.7 267.1 -44.8 267.7 C-42.3 269.3 -39.9 270.3 -37.2 271.4 C-35.2 273.4 -35.2 273.4 -34.9 275.8 C-35.2 278.4 -35.2 278.4 -36.2 280.2 C-39.4 282.1 -42.6 281.9 -46.2 281.4 C-48.8 280 -51 278.3 -53.2 276.4 C-53.8 275.9 -54.4 275.4 -55 274.9 C-56.4 273.7 -57.8 272.6 -59.2 271.4 C-62.9 272.9 -64.6 274.9 -67.1 278 C-71.6 283.8 -76.5 289.1 -81.6 294.4 C-82.2 295 -82.7 295.6 -83.3 296.3 C-84.1 297.1 -84.1 297.1 -84.9 297.9 C-86.3 299.4 -86.3 299.4 -87.2 301.4 C-87.9 301.4 -88.5 301.4 -89.2 301.4 C-88.1 303.3 -87 305.2 -85.9 307.2 C-85.3 308.2 -84.6 309.3 -84 310.4 C-82.4 313.3 -82.4 313.3 -80.5 315 C-79.2 316.4 -79.2 316.4 -78.3 320.1 C-78.4 322.2 -78.4 322.2 -79.2 324.4 C-81.7 326.5 -84.2 328 -87.1 329.6 C-90 331.2 -92.5 333 -95.2 335 C-98.7 337.7 -102.2 340 -106 342.3 C-106.9 342.8 -107.7 343.3 -108.6 343.9 C-110.3 344.9 -112 345.9 -113.7 346.9 C-119.1 350.1 -121.2 352.4 -123.2 358.4 C-125.9 359.7 -128.2 359.4 -131.2 359.4 C-135.2 350.5 -138.4 342.2 -138.2 332.4 C-139.1 332.7 -139.1 332.7 -140 333 C-140.8 333.2 -141.6 333.5 -142.4 333.8 C-143.6 334.2 -143.6 334.2 -144.8 334.6 C-148.7 335.8 -151.9 336.5 -155.9 336.4 C-156.7 336.4 -157.5 336.4 -158.4 336.4 C-159.3 336.4 -159.3 336.4 -160.2 336.4 C-160.1 336.9 -160.1 337.5 -160 338.1 C-159.7 340.7 -159.5 343.4 -159.2 346 C-159 347.3 -159 347.3 -158.9 348.7 C-157.9 358.5 -157.9 358.5 -158.2 362.4 C-160.2 364.4 -160.2 364.4 -163.8 364.5 C-164.9 364.4 -166 364.4 -167.2 364.4 C-170.7 358.8 -170.7 353.5 -170.9 347 C-170.9 346 -170.9 344.9 -171 343.9 C-171.1 341.4 -171.1 338.9 -171.2 336.4 C-172.4 336.2 -173.6 336.1 -174.8 335.9 C-195.5 333.3 -212.4 321.2 -225.1 305.2 C-239 286.5 -245.8 266.3 -242.7 243.1 C-238.9 220.1 -225.5 203.1 -208.2 188.4 C-206.2 187 -204.2 185.6 -202.2 184.4 C-200.1 182.8 -198 181.2 -195.9 179.5 C-192.1 176.5 -188.2 173.7 -184.1 171.1 C-170.5 161.7 -162 144.2 -154.4 130 C-153.9 129 -153.3 128 -152.7 126.9 C-151.2 124 -149.7 121.2 -148.2 118.4 C-147.6 117.2 -147 116 -146.3 114.8 C-143.8 109.2 -145.3 103.5 -147.1 97.9 C-150.3 90.7 -156.7 84.9 -163.8 81.7 C-195.2 71.1 -231.8 84 -260.2 97.6 C-311 121.7 -311 121.7 -335.1 113.7 C-347.8 108.4 -357.6 97.8 -362.9 85.2 C-365 79.9 -366.3 75.8 -366.4 70 C-366.4 68.9 -366.4 67.7 -366.4 66.6 C-366.1 61.7 -364.9 59.1 -361.6 55.5 C-358.3 53 -355.4 52.8 -351.3 53 C-347.3 53.7 -345 55.6 -342.2 58.4 C-341.6 60.2 -341.6 60.2 -341.2 62.5 C-341.1 63.3 -340.9 64.1 -340.7 65 C-340.4 66.7 -340.1 68.4 -339.8 70.2 C-338.8 75 -337.6 79 -335.2 83.4 C-335.2 84 -335.2 84.7 -335.2 85.4 C-334.5 85.4 -333.9 85.4 -333.2 85.4 C-333.2 86 -333.2 86.7 -333.2 87.4 C-314.3 88 -314.3 88 -296 84.1 C-293.1 83.3 -291.9 83.2 -289.2 84.4 C-288.7 85 -288.1 85.7 -287.6 86.4 C-283.8 89.5 -279.9 89.6 -275.2 89.4 C-271.5 88.4 -271.5 88.4 -269.2 85.4 C-268.6 82.8 -268.6 82.8 -268.3 79.9 C-267.6 74.8 -267.6 74.8 -265.9 72.8 C-263.7 71.3 -261.6 70.4 -259.2 69.4 C-258.6 69.1 -258 68.8 -257.4 68.6 C-247.2 64 -236.9 60.4 -226.2 57.4 C-225.6 57.2 -224.9 57 -224.3 56.8 C-198.3 49.2 -171.9 48.2 -147.6 61.3 C-142.1 64.5 -137.6 68.8 -133.2 73.4 C-132.9 73.7 -132.5 74 -132.2 74.4 C-130.8 69.8 -129.8 65.3 -129 60.5 C-124.2 35.1 -110.6 12.1 -89.2 -2.6 C-61.2 -19.9 -26.9 -19 0 0 Z " fill="#FDFEFE" transform="translate(851.19140625,543.64453125)"/>
<path d="M0 0 C0.8 0.6 1.6 1.2 2.5 1.8 C8.8 6.5 13.9 12 19 18 C20.1 19.1 20.1 19.1 21.2 20.3 C29.3 29.3 31.3 40.3 33.6 51.9 C37.8 72.4 44.1 92.8 54.8 110.9 C56.2 113.3 57.5 115.7 58.8 118.2 C66.2 131.5 74 144.7 85.2 155.3 C87 157 88.6 158.9 90.2 160.8 C93.9 165 97.9 168.7 102.1 172.3 C103.4 173.5 104.7 174.8 106 176 C106 176.7 106 177.3 106 178 C106.5 178.1 107.1 178.1 107.6 178.2 C110.9 179.3 113.5 181.3 116.2 183.4 C116.8 183.9 117.3 184.3 117.9 184.8 C123.2 189 127.7 193.7 132 199 C132.6 199.8 133.3 200.5 134 201.3 C145.3 215.3 148.5 231.9 147.3 249.6 C145.9 262.5 140.3 273.4 133 284 C132.4 284.8 131.8 285.7 131.2 286.5 C126.9 292.2 121.5 294.5 115 297 C113.2 297.8 113.2 297.8 111.4 298.7 C93.3 305.6 72.2 302.9 54.8 295.2 C51.4 293.6 48.2 291.9 44.9 290.1 C43 289 41.1 288 39.2 287 C23.1 278.2 12.6 264.9 2.4 250 C0.6 247.4 -1.2 244.9 -3.1 242.3 C-5.2 239.3 -7 236.2 -8.9 233 C-11.1 229.1 -13.5 225.4 -15.8 221.6 C-47.7 170.3 -47.7 170.3 -59 142.7 C-60.8 138.4 -62.8 134.4 -65 130.2 C-70.1 120.5 -73.5 110.2 -77 99.8 C-77.9 97.4 -78.7 95 -79.6 92.6 C-85 76.9 -86.8 63.9 -84.7 47.6 C-84.6 46.6 -84.5 45.6 -84.3 44.6 C-83.1 35.2 -81.1 26.8 -75.8 18.8 C-75.3 18.2 -74.9 17.6 -74.5 17 C-67.4 6.5 -55.8 -3.3 -43 -6 C-29.3 -8.2 -11.8 -8.3 0 0 Z " fill="#FEF7F8" transform="translate(302,554)"/>
<path d="M0 0 C2.3 1.7 4.6 3.5 6.8 5.4 C11.2 4 14.3 1.5 17.7 -1.4 C20.3 -2.9 21.9 -3 24.8 -2.6 C26.6 -1.5 26.6 -1.5 27.8 0.4 C28.2 3.2 28.2 3.2 27.8 6.4 C25.4 8.7 25.4 8.7 22.3 10.7 C21.3 11.4 20.3 12.1 19.2 12.8 C18.4 13.3 17.6 13.8 16.8 14.4 C19.4 18.9 22 23.3 24.9 27.7 C25.8 29.4 25.8 29.4 25.8 31.4 C26.4 31.1 27.1 30.8 27.8 30.5 C32.9 28.3 37.1 26.5 42.8 27.4 C44.8 28.5 44.8 28.5 45.8 30.4 C45.6 34 45.4 35.7 42.8 38.4 C41.3 38.9 39.8 39.4 38.3 39.9 C36 40.6 33.9 41.3 31.8 42.4 C31.9 43.1 32.1 43.8 32.2 44.5 C36.2 66.5 36.2 66.5 32.8 76.4 C33.4 76.2 34 76 34.7 75.9 C39 75.2 43.4 74.9 47.8 75.4 C49.8 77.4 49.8 77.4 50.2 80.3 C49.8 83.4 49.8 83.4 48.3 85 C44.9 86.8 41.8 86.9 38.1 87 C37.4 87.1 36.7 87.1 35.9 87.1 C34.2 87.2 32.5 87.3 30.8 87.4 C30.4 89.1 30.4 89.1 30.1 91 C26.8 105.3 22.4 120.2 15.8 133.4 C17.1 133.3 18.4 133.3 19.7 133.3 C21.3 133.3 23 133.2 24.7 133.2 C25.5 133.2 26.4 133.2 27.2 133.2 C28 133.2 28.8 133.2 29.7 133.2 C30.8 133.1 30.8 133.1 31.9 133.1 C33.8 133.4 33.8 133.4 35.8 135.4 C36.1 138.9 36.1 138.9 35.8 142.4 C32.6 144.5 31.5 144.6 27.7 144.8 C26.7 144.8 25.7 144.8 24.7 144.9 C23.2 144.9 23.2 144.9 21.6 145 C20.6 145 19.5 145.1 18.5 145.1 C15.9 145.2 13.4 145.3 10.8 145.4 C7.1 153.3 3.3 161.3 -0.2 169.4 C0.4 169.5 1.1 169.6 1.8 169.7 C7.2 170.7 11.8 172 16.8 174.4 C17 177.7 17 177.7 16.8 181.4 C12.6 184.2 9.7 183.3 4.8 182.4 C1.1 181.5 -2.5 180.4 -6.2 179.4 C-6.4 180.1 -6.6 180.9 -6.9 181.7 C-8.6 186.5 -11 190.8 -13.4 195.2 C-13.9 196 -14.4 196.9 -14.9 197.7 C-17.7 202.8 -20.7 207.7 -24 212.5 C-25.4 214.4 -25.4 214.4 -26.2 217.4 C-25.6 217.5 -25.1 217.6 -24.5 217.7 C-10.9 220.7 -10.9 220.7 -9.2 222.4 C-8.7 227.6 -8.7 227.6 -10.3 230.2 C-13.3 232 -15.8 231.6 -19.2 231.4 C-22.9 230.3 -22.9 230.3 -26.6 228.9 C-27.3 228.6 -27.9 228.4 -28.6 228.1 C-30.1 227.6 -31.6 227 -33.2 226.4 C-33.4 227 -33.6 227.7 -33.9 228.3 C-35.6 232.4 -38 235.8 -40.4 239.5 C-40.9 240.2 -41.4 241 -41.9 241.8 C-44.1 245.1 -46.3 248.5 -48.5 251.8 C-49.1 252.8 -49.8 253.7 -50.4 254.7 C-51 255.6 -51.6 256.4 -52.1 257.3 C-53.6 259.5 -53.6 259.5 -52.2 262.4 C-50 264.2 -50 264.2 -47.4 265.9 C-46.6 266.5 -45.7 267.1 -44.8 267.7 C-42.3 269.3 -39.9 270.3 -37.2 271.4 C-35.2 273.4 -35.2 273.4 -34.9 275.8 C-35.2 278.4 -35.2 278.4 -36.2 280.2 C-39.4 282.1 -42.6 281.9 -46.2 281.4 C-48.8 280 -51 278.3 -53.2 276.4 C-53.8 275.9 -54.4 275.4 -55 274.9 C-56.4 273.7 -57.8 272.6 -59.2 271.4 C-62.9 272.9 -64.6 274.9 -67.1 278 C-71.6 283.8 -76.5 289.1 -81.6 294.4 C-82.2 295 -82.7 295.6 -83.3 296.3 C-84.1 297.1 -84.1 297.1 -84.9 297.9 C-86.3 299.4 -86.3 299.4 -87.2 301.4 C-87.9 301.4 -88.5 301.4 -89.2 301.4 C-88.1 303.3 -87 305.2 -85.9 307.2 C-85.3 308.2 -84.6 309.3 -84 310.4 C-82.4 313.3 -82.4 313.3 -80.5 315 C-79.2 316.4 -79.2 316.4 -78.3 320.1 C-78.4 322.2 -78.4 322.2 -79.2 324.4 C-81.7 326.5 -84.2 328 -87.1 329.6 C-90 331.2 -92.5 333 -95.2 335 C-98.7 337.7 -102.2 340 -106 342.3 C-106.9 342.8 -107.7 343.3 -108.6 343.9 C-110.3 344.9 -112 345.9 -113.7 346.9 C-119.1 350.1 -121.2 352.4 -123.2 358.4 C-125.9 359.7 -128.2 359.4 -131.2 359.4 C-135.2 350.5 -138.4 342.2 -138.2 332.4 C-139.1 332.7 -139.1 332.7 -140 333 C-140.8 333.2 -141.6 333.5 -142.4 333.8 C-143.6 334.2 -143.6 334.2 -144.8 334.6 C-148.7 335.8 -151.9 336.5 -155.9 336.4 C-156.7 336.4 -157.5 336.4 -158.4 336.4 C-159.3 336.4 -159.3 336.4 -160.2 336.4 C-160.1 336.9 -160.1 337.5 -160 338.1 C-159.7 340.7 -159.5 343.4 -159.2 346 C-159 347.3 -159 347.3 -158.9 348.7 C-157.9 358.5 -157.9 358.5 -158.2 362.4 C-160.2 364.4 -160.2 364.4 -163.8 364.5 C-164.9 364.4 -166 364.4 -167.2 364.4 C-170.7 358.8 -170.7 353.5 -170.9 347 C-170.9 346 -170.9 344.9 -171 343.9 C-171.1 341.4 -171.1 338.9 -171.2 336.4 C-172.4 336.2 -173.6 336.1 -174.8 335.9 C-195.5 333.3 -212.4 321.2 -225.1 305.2 C-239 286.5 -245.8 266.3 -242.7 243.1 C-238.9 220.1 -225.5 203.1 -208.2 188.4 C-206.2 187 -204.2 185.6 -202.2 184.4 C-200.1 182.8 -198 181.2 -195.9 179.5 C-192.1 176.5 -188.2 173.7 -184.1 171.1 C-170.5 161.7 -162 144.2 -154.4 130 C-153.9 129 -153.3 128 -152.7 126.9 C-151.2 124 -149.7 121.2 -148.2 118.4 C-147.6 117.2 -147 116 -146.3 114.8 C-143.8 109.2 -145.3 103.5 -147.1 97.9 C-150.3 90.7 -156.7 84.9 -163.8 81.7 C-195.2 71.1 -231.8 84 -260.2 97.6 C-311 121.7 -311 121.7 -335.1 113.7 C-347.8 108.4 -357.6 97.8 -362.9 85.2 C-365 79.9 -366.3 75.8 -366.4 70 C-366.4 68.9 -366.4 67.7 -366.4 66.6 C-366.1 61.7 -364.9 59.1 -361.6 55.5 C-358.3 53 -355.4 52.8 -351.3 53 C-347.3 53.7 -345 55.6 -342.2 58.4 C-341.6 60.2 -341.6 60.2 -341.2 62.5 C-341.1 63.3 -340.9 64.1 -340.7 65 C-340.4 66.7 -340.1 68.4 -339.8 70.2 C-338.8 75 -337.6 79 -335.2 83.4 C-335.2 84 -335.2 84.7 -335.2 85.4 C-334.5 85.4 -333.9 85.4 -333.2 85.4 C-333.2 86 -333.2 86.7 -333.2 87.4 C-314.3 88 -314.3 88 -296 84.1 C-293.1 83.3 -291.9 83.2 -289.2 84.4 C-288.7 85 -288.1 85.7 -287.6 86.4 C-283.8 89.5 -279.9 89.6 -275.2 89.4 C-271.5 88.4 -271.5 88.4 -269.2 85.4 C-268.6 82.8 -268.6 82.8 -268.3 79.9 C-267.6 74.8 -267.6 74.8 -265.9 72.8 C-263.7 71.3 -261.6 70.4 -259.2 69.4 C-258.6 69.1 -258 68.8 -257.4 68.6 C-247.2 64 -236.9 60.4 -226.2 57.4 C-225.6 57.2 -224.9 57 -224.3 56.8 C-198.3 49.2 -171.9 48.2 -147.6 61.3 C-142.1 64.5 -137.6 68.8 -133.2 73.4 C-132.9 73.7 -132.5 74 -132.2 74.4 C-130.8 69.8 -129.8 65.3 -129 60.5 C-124.2 35.1 -110.6 12.1 -89.2 -2.6 C-61.2 -19.9 -26.9 -19 0 0 Z M-91.8 28.9 C-93 30.2 -94.3 31.5 -95.5 32.7 C-103.9 42 -106.8 54.4 -108.4 66.5 C-111.5 89.3 -121.8 111.7 -133.2 131.4 C-133.7 132.2 -134.2 133.1 -134.7 134.1 C-142.3 147.3 -150.3 160 -161.4 170.6 C-163.1 172.3 -164.7 174 -166.2 175.9 C-169.5 179.8 -173.3 183.1 -177.2 186.4 C-177.7 186.8 -178.2 187.3 -178.8 187.8 C-182 190.7 -185.4 193.2 -189.1 195.6 C-197 200.9 -202.5 207 -208 214.7 C-209.2 216.4 -210.5 218 -211.9 219.5 C-222 231.9 -222.6 250.1 -221.2 265.4 C-219.1 279.4 -212.8 294.3 -202.1 304 C-198.4 306.7 -194.4 308.6 -190.2 310.4 C-189.5 310.7 -188.8 311 -188.1 311.3 C-169.8 318.7 -149.5 316.2 -131.6 308.9 C-116.4 302.2 -101.6 294.7 -91.2 281.4 C-90.4 280.5 -89.6 279.5 -88.8 278.6 C-83 271.9 -78 264.9 -73.2 257.4 C-72.6 256.5 -72 255.5 -71.4 254.6 C-67.8 248.9 -64.2 243.1 -60.7 237.4 C-58.8 234.2 -56.8 231.2 -54.8 228.1 C-41.8 207.5 -29.9 186.6 -19.6 164.5 C-18.1 161.1 -16.5 157.7 -14.9 154.3 C2.5 118.2 2.5 118.2 10.8 79.4 C10.9 78 10.9 78 11.1 76.5 C11.7 61.9 9.8 43.3 0.8 31.4 C0.2 30.5 -0.4 29.6 -1 28.7 C-5.6 22.5 -10.7 18.3 -17.2 14.4 C-18 13.9 -18.7 13.4 -19.5 12.9 C-45.2 -2.3 -73.3 9.1 -91.8 28.9 Z " fill="#B4D1EF" transform="translate(851.19140625,543.64453125)"/>
<path d="M0 0 C0.7 0.3 1.5 0.6 2.2 0.9 C7.3 3.2 11.4 6.5 15.7 10.1 C18 12 18 12 20.3 13.6 C20.9 14.1 21.4 14.5 22 15 C22 15.7 22 16.3 22 17 C22.7 17 23.3 17 24 17 C25.7 19 27.1 20.9 28.6 23 C29.1 23.6 29.5 24.2 30 24.9 C33.1 29.5 35.9 34.2 38.4 39.2 C38.7 39.8 39 40.4 39.3 41.1 C43.8 50.3 46.5 59.5 48.2 69.6 C50 78.9 52.2 87.9 55.1 96.9 C55.4 98 55.7 99.1 56.1 100.2 C56.4 101.2 56.7 102.2 57 103.2 C57.3 104.1 57.6 105 57.9 105.9 C59.2 108.5 60.3 109 63 110 C76.7 112.9 90.7 109 103 103 C103.6 102.7 104.2 102.4 104.9 102.1 C116.2 96.7 127.6 91 137.5 83.1 C139 82 139 82 141 82 C141 81.3 141 80.7 141 80 C142.5 78.7 142.5 78.7 144.6 77.1 C148.2 74.4 151.6 71.6 155 68.6 C175.6 50.4 202.2 37.9 230 39 C244.1 40.4 256.4 46.7 267 56 C273.7 64.9 277.8 75.7 276.7 86.9 C275.4 95.4 275.4 95.4 272 98 C268 100.5 264.9 100.1 260.4 99.6 C258 99 258 99 255.5 96.3 C253.3 93.7 253.3 93.7 250.8 94 C246.9 94.8 243.2 95.9 239.4 97.1 C234 98.4 228.6 98.3 223.1 98.2 C222.1 98.2 221 98.2 220 98.2 C212.3 98.1 212.3 98.1 210 97 C210 96.3 210 95.7 210 95 C209.3 95 208.7 95 208 95 C204.7 89.1 203.1 83.8 201.9 77.2 C201.6 75.5 201.3 73.8 201 72.2 C200.9 71.4 200.8 70.7 200.6 70 C199.9 67.6 198.9 66.6 197 65 C192.9 63.6 189.3 63.4 185 64 C181.3 65.9 181.3 65.9 179 69 C178.5 71.6 178.5 71.6 178.2 74.4 C177.5 79.5 177.5 79.5 175.4 81.6 C173.9 82.5 172.4 83.4 170.9 84.2 C167.2 86.5 164.2 89.2 161 92.1 C137.9 112.4 105.3 137.1 73 136 C82.8 154.7 92.8 170.4 110.2 182.9 C117.4 188 124.3 193.3 131 199 C131.7 199.6 132.4 200.2 133.2 200.8 C148.9 214.1 159.6 232.4 162 253 C163.5 275.2 157.6 295.6 143.1 312.7 C142 313.8 142 313.8 141 315 C140.3 315.9 139.6 316.7 138.8 317.6 C132.8 324.7 126.4 330.5 117.5 333.6 C115.5 334.4 115.5 334.4 114 336 C113.1 339.3 112.8 342.4 112.5 345.8 C111.9 349.6 110.7 351.3 108 354 C103.7 356.7 98.2 357.8 93.2 357.6 C88.8 356.4 86.3 352.7 84 349 C83.3 347.4 82.6 345.7 82 344 C74.1 342.5 74.1 342.5 66.5 344.2 C64.6 345.7 62.8 347.3 61 349 C55.4 352.1 48.8 351.7 42.8 350.1 C38.4 348.2 36.7 345.1 34.8 340.9 C33.5 336.2 33.6 331.8 34 327 C33.3 326.7 32.5 326.4 31.8 326.2 C23.8 322.8 17.5 316.9 11.3 311.1 C7.7 307.8 5.6 307.9 0.8 307.8 C-5.5 307.3 -8.5 306.3 -13 302 C-16.2 297.8 -16.1 295.4 -15.4 290.2 C-15.2 280.3 -20.5 274.3 -26.6 266.8 C-27.9 265.1 -29 263.4 -30.1 261.6 C-31.8 258.8 -31.8 258.8 -34.5 258.2 C-35.8 258.1 -35.8 258.1 -37.2 258 C-45.6 256.9 -51.6 252.3 -56.8 245.7 C-60.9 239.9 -62 235 -61 228 C-60 225.8 -59 223.9 -57.7 221.9 C-56.8 220 -56.8 220 -57.6 217.8 C-58.1 216.9 -58.5 216 -59 215 C-59.3 214.3 -59.6 213.7 -59.9 213 C-63.7 205 -63.7 205 -69 198 C-72.4 196.9 -74.6 197.2 -78.2 197.7 C-82.2 198.1 -84.3 196.8 -87.4 194.4 C-90.5 191.6 -91.8 189.7 -92.3 185.6 C-92.5 177.9 -91.3 171.4 -87 165 C-86.3 165 -85.7 165 -85 165 C-85.5 163.9 -85.5 163.9 -86 162.8 C-87.5 159.6 -89 156.4 -90.5 153.1 C-91 152 -91.5 150.9 -92.1 149.7 C-92.6 148.6 -93.1 147.6 -93.6 146.4 C-94.1 145.5 -94.5 144.5 -95 143.4 C-96 141 -96 141 -96 139 C-97 139.1 -98 139.2 -99 139.2 C-104.4 139.2 -108.7 137 -112.7 133.5 C-118.4 127.3 -120.6 120.8 -120.4 112.5 C-119.6 107.5 -117.7 103.4 -113.8 100.2 C-111.6 98 -111.6 98 -112 94.5 C-112.2 93.1 -112.4 91.8 -112.7 90.4 C-112.9 88.9 -113.1 87.3 -113.4 85.8 C-113.5 85 -113.6 84.2 -113.7 83.4 C-114 81 -114.1 78.6 -114.2 76.1 C-114.2 74.9 -114.2 74.9 -114.3 73.7 C-114.3 72.1 -114.3 70.6 -114.3 69.1 C-114.5 63.2 -116.1 61.1 -120 57 C-123.1 52 -122.7 46.3 -121.5 40.7 C-119.6 34.8 -116.4 32.5 -111.2 29.2 C-107.2 27.7 -104.3 27.8 -100 28 C-99.8 27.3 -99.6 26.7 -99.4 26 C-92.3 11.2 -74.7 1.5 -60 -4 C-56 -5.3 -52.1 -6.3 -48 -7 C-46.8 -7.2 -45.7 -7.5 -44.5 -7.7 C-28.7 -9.1 -14.4 -6.4 0 0 Z M-73 27.6 C-88.2 41.5 -91.1 61.8 -92.1 81.2 C-92.3 86.9 -91.4 92 -90.1 97.5 C-89.7 98.8 -89.7 98.8 -89.4 100.2 C-84.5 119.5 -76.9 138.3 -68.2 156.1 C-65.4 161.9 -62.6 167.7 -60.1 173.7 C-52 192.5 -41.6 210.1 -30.6 227.4 C-28.4 231 -26.2 234.5 -24 238.1 C-22.3 240.8 -20.7 243.4 -19.1 246.1 C-17.1 249.1 -15.3 252.2 -13.4 255.3 C-5.1 268.8 4.1 281.5 15 293 C15.5 293.6 16 294.2 16.6 294.8 C22.2 301.1 29.7 305 37 309 C37.6 309.4 38.3 309.7 38.9 310.1 C57.2 320.3 77.5 325.4 98.2 320.9 C100.2 320.3 102.1 319.7 104 319 C104.6 318.8 105.3 318.5 105.9 318.3 C115.2 314.9 122.4 311.5 128 303 C128.4 302.4 128.7 301.9 129.1 301.3 C139.9 284.5 144.1 266.4 140 246.7 C137 234 131.4 226 123 216 C122.3 215.2 121.7 214.4 121 213.6 C116.2 207.8 109.4 200.1 101.8 198.5 C101.2 198.4 100.6 198.2 100 198 C99.7 197.4 99.4 196.8 99.1 196.2 C97.9 193.8 96.6 192.4 94.6 190.6 C93.9 190 93.2 189.4 92.5 188.7 C91.4 187.7 91.4 187.7 90.3 186.8 C85.4 182.3 80.8 177.8 76.5 172.8 C75.1 171.1 73.7 169.5 72.2 167.9 C62.5 156.5 55.5 143 48.5 129.8 C47.5 127.9 46.4 125.9 45.3 123.9 C40.8 116 37.6 108.1 34.8 99.4 C34.6 98.8 34.4 98.1 34.2 97.5 C31 87.9 28.6 78.3 26.8 68.4 C24.5 55.8 21 46.5 12 37 C11.1 36 10.2 34.9 9.3 33.9 C-0.2 22.9 -10.3 15.1 -25.1 13.8 C-26.3 13.6 -26.3 13.6 -27.6 13.5 C-45.9 11.9 -58.6 16.1 -73 27.6 Z " fill="#E4939C" transform="translate(308,534)"/>
<path d="M0 0 C0.7 0.7 1.3 1.3 2 2 C6.2 1.6 10.1 0 14.1 -1.3 C53.5 -13.7 96.8 -10.2 133.7 9 C150.8 18.3 150.8 18.3 157 25 C156.4 25.1 155.8 25.1 155.2 25.2 C143.5 26.5 132.7 27.9 122 33 C121.4 33.3 120.7 33.6 120.1 33.9 C110.3 38.3 101.7 43.3 94 51 C87.6 50.6 81.6 49 75.4 47.5 C53.6 42.1 26.5 42.7 5.4 50.8 C-4.5 54.6 -4.5 54.6 -9.2 52.8 C-11.8 50.8 -14.1 48.7 -16.4 46.5 C-19.4 43.7 -23 41.6 -26.5 39.5 C-27.3 39 -28 38.6 -28.8 38.1 C-67.7 15.1 -114 9.2 -157.7 20 C-164 21.7 -170 23.5 -176 26 C-176.6 26.2 -177.2 26.5 -177.9 26.7 C-187.5 30.6 -196.5 35.2 -205.3 40.7 C-206.2 41.2 -207.1 41.8 -208 42.3 C-211.6 44.6 -215 46.8 -217.9 49.9 C-220 52 -220 52 -223.1 52.1 C-227.2 51.1 -231.1 49.5 -235 48.1 C-247.9 43.6 -260.9 42.8 -274.4 42.8 C-275.2 42.7 -275.9 42.7 -276.6 42.7 C-287.4 42.7 -297.4 43.6 -308 46 C-315.2 47.5 -315.2 47.5 -318.2 45.6 C-318.8 44.9 -319.4 44.3 -320 43.6 C-328.5 35.2 -340.8 30.5 -352 27 C-353.1 26.7 -354.1 26.3 -355.2 26 C-359 25 -362.1 24.8 -366 24.8 C-367.3 24.8 -368.6 24.8 -369.9 24.8 C-371.3 24.8 -372.6 24.9 -373.9 24.9 C-375.3 24.9 -376.7 24.9 -378 24.9 C-381.4 24.9 -384.7 25 -388 25 C-369.1 5.6 -342.9 -3.4 -317 -9 C-316.1 -9.2 -315.3 -9.4 -314.4 -9.6 C-304.8 -11.3 -294.7 -11.3 -285 -11 C-283.9 -11 -282.8 -10.9 -281.7 -10.9 C-266.6 -10.2 -248.6 -6.8 -235 0 C-230.5 0 -228.2 -2.4 -225 -5.3 C-164 -58.3 -59.3 -50.8 0 0 Z " fill="#DE8964" transform="translate(649,493)"/>
<path d="M0 0 C2.2 0 4.3 0 6.5 -0 C19.5 -0 32.4 1.2 45.1 4.4 C45.9 4.7 46.8 4.9 47.6 5.1 C69.9 11.1 91.8 21.7 109.1 37.1 C112.8 39.1 116.2 37.6 120.1 36.4 C121.6 35.9 121.6 35.9 123.2 35.4 C147.8 28.4 175.4 25.3 200.2 33.3 C200.9 33.9 201.5 34.6 202.2 35.3 C201.7 36.3 201.2 37.2 200.7 38.3 C193.9 51.6 188 64.7 184.2 79.3 C180.6 78.7 177.8 77.7 174.5 76.1 C148.7 64 122.6 60.4 95.2 69.3 C91.5 70.6 88 72.2 84.4 73.8 C80.1 75.7 75.7 77.1 71.2 78.4 C68.2 79.3 65.2 80.3 62.2 81.3 C61.7 80.3 61.2 79.4 60.7 78.4 C52 62.9 40 49.4 22.3 44.3 C20.6 43.9 18.9 43.6 17.2 43.3 C16.4 43.1 15.5 42.9 14.6 42.7 C1.4 40.9 -12.4 41.1 -24.8 46.3 C-26.3 46.8 -27.8 47.4 -29.3 48 C-39.6 52 -48.8 56.8 -57.8 63.3 C-58.5 63.8 -59.2 64.3 -59.9 64.8 C-67.4 70.1 -74.8 75.5 -82 81.2 C-91.1 88.3 -101 94.2 -110.8 100.3 C-112 101 -112 101 -113.3 101.8 C-127.4 110.5 -138 115 -154.8 114.3 C-158.4 108.3 -160.4 102.5 -161.8 95.7 C-166.2 74.4 -172.6 53.4 -184.9 35.2 C-186.8 32.3 -186.8 32.3 -186.8 30.3 C-161.4 24.9 -134.3 25.3 -110.1 35.5 C-107 36.7 -105.3 37.4 -102 36.6 C-99.6 35.2 -97.6 33.5 -95.5 31.7 C-79.5 18.5 -59.6 10.7 -40 4.9 C-39.2 4.6 -38.4 4.4 -37.5 4.2 C-25.2 0.7 -12.7 -0.1 0 0 Z " fill="#B56D4C" transform="translate(530.779052734375,520.7392578125)"/>
<path d="M0 0 C2.1 2.3 2.1 2.3 4.2 5.6 C4.6 6.1 5 6.7 5.4 7.3 C9.5 13.5 13.3 19.9 17 26.3 C18.3 28.6 19.7 30.7 21.1 32.9 C31.2 49.9 39.1 68.4 45.4 87.1 C45.9 88.8 46.5 90.5 47.1 92.1 C50.1 100.6 52.1 109.2 54 118 C54.2 118.8 54.4 119.7 54.6 120.6 C55.1 123.2 55.7 125.9 56.2 128.5 C56.4 129.3 56.6 130.1 56.8 131 C57.9 136.4 58.2 141.4 58 147 C52.9 144.2 47.9 141.4 43.1 138.2 C41 137 41 137 38.8 136.1 C31 132.8 26.1 127.4 20.4 121.4 C5.5 106.2 -15.7 94.3 -36 88 C-36.7 87.8 -37.5 87.5 -38.3 87.3 C-69.9 77.4 -103.9 76.4 -135.5 87.1 C-143.1 89.6 -143.1 89.6 -147 88 C-149.8 86.2 -152.5 84.3 -155.2 82.3 C-160.8 78.3 -166.3 74.4 -172.4 71.2 C-172.9 70.8 -173.5 70.4 -174 70 C-174 69 -174 68 -174 67 C-173.2 66.7 -172.4 66.4 -171.5 66 C-148 56.8 -124.5 47.5 -101 38.1 C-97 36.5 -92.9 34.9 -88.8 33.3 C-88.2 33 -87.5 32.7 -86.8 32.5 C-71.3 26.3 -55.7 20.2 -40.2 14 C-23.7 7.5 -23.7 7.5 -7.3 0.9 C-4.5 -0.2 -2.9 -0.6 0 0 Z " fill="#FEEB97" transform="translate(797,389)"/>
<path d="M0 0 C6 1.9 11.8 4.1 17.6 6.7 C18.4 7.1 19.2 7.4 20 7.8 C21.8 8.5 23.5 9.3 25.2 10.1 C29.8 12.1 34.4 14.1 39 16.2 C40.4 16.8 40.4 16.8 41.8 17.4 C50.4 21.2 59.1 24.9 67.8 28.6 C70.6 29.8 73.5 31.1 76.3 32.3 C77 32.6 77.8 32.9 78.5 33.2 C86.8 36.8 95.1 40.3 103.4 43.9 C104.1 44.3 104.9 44.6 105.7 44.9 C109.5 46.6 113.3 48.3 117.2 49.9 C124.9 53.3 132.6 56.6 140.3 59.9 C144.3 61.6 148.2 63.3 152.2 65.1 C153.5 65.6 154.9 66.2 156.2 66.8 C157.6 67.4 157.6 67.4 159 68 C159 68.7 159 69.3 159 70 C157.2 71.3 155.3 72.6 153.4 73.8 C149.9 76.1 146.6 78.2 143.6 81.1 C141 83 141 83 138.1 83 C135.2 82.1 132.4 81 129.5 79.9 C91.9 66.6 51 70.2 15.1 86.8 C2.6 92.8 -8.5 100.9 -19 110 C-19.8 110.7 -20.7 111.4 -21.5 112.1 C-27.1 116.8 -31.5 122.1 -36 127.9 C-41.3 134.9 -47.5 140.4 -55 145 C-55.2 138.3 -54.5 132.3 -53.2 125.8 C-53 124.8 -52.8 123.9 -52.6 122.9 C-52.1 120.3 -51.5 117.6 -51 115 C-50.8 113.8 -50.5 112.6 -50.3 111.4 C-48.4 102.5 -45.5 93.8 -42.7 85.2 C-42.1 83.3 -41.5 81.4 -40.9 79.5 C-31.7 51 -16.5 24.9 0 0 Z " fill="#FEEB97" transform="translate(276,394)"/>
<path d="M0 0 C1.6 4 3.2 8 4.9 12 C5.4 13.4 5.9 14.8 6.5 16.1 C9.8 24.4 13 32.6 15.9 41 C17.2 44.5 18.7 47.9 20.3 51.3 C21 53 21 53 21 55 C20.4 55.1 19.8 55.1 19.2 55.2 C16.5 55.5 13.8 55.9 11.1 56.2 C10.2 56.4 9.3 56.5 8.3 56.6 C3.6 57.2 -0.5 58.1 -4.9 60 C-10.6 62.4 -16.3 63.3 -22.3 64.2 C-24.4 64.5 -26.5 64.8 -28.6 65.2 C-29.5 65.3 -30.4 65.4 -31.4 65.6 C-33 65.8 -34.7 66.2 -36.3 66.5 C-39.9 67.2 -43.5 67.2 -47.2 67.2 C-48 67.2 -48.7 67.2 -49.6 67.2 C-51.2 67.2 -52.8 67.2 -54.5 67.2 C-57 67.2 -59.5 67.2 -62 67.2 C-63.6 67.2 -65.2 67.2 -66.8 67.2 C-67.6 67.2 -68.3 67.2 -69.1 67.3 C-73.2 67.2 -76.3 66.8 -80 65 C-80.3 65.3 -80.7 65.7 -81 66 C-79.1 73.2 -76.5 79.6 -73.1 86.1 C-72.6 87 -72.1 87.9 -71.6 88.9 C-64.3 102.4 -54.5 113.9 -44.4 125.4 C-43.4 126.5 -42.4 127.7 -41.5 128.9 C-38.9 131.9 -36.6 134.7 -33.1 136.8 C-32.4 137.3 -31.6 137.8 -30.8 138.3 C-29.9 138.8 -29 139.4 -28 140 C-26.7 140.8 -25.5 141.6 -24.2 142.4 C-4.8 154.8 15.1 162.6 38 166 C41.7 166.5 44.7 167.2 48 169 C45 170.2 42 171.4 38.9 172.6 C38.1 172.9 37.2 173.2 36.4 173.6 C35.5 173.9 34.7 174.2 33.8 174.6 C33.1 174.9 32.3 175.2 31.5 175.5 C25.8 176.7 20.7 174.7 15.5 172.4 C14.9 172.2 14.3 171.9 13.6 171.6 C11.5 170.7 9.5 169.8 7.4 168.9 C5.9 168.2 4.4 167.6 2.8 166.9 C-0.5 165.4 -3.9 164 -7.3 162.5 C-13.5 159.8 -19.8 157.1 -26 154.3 C-35.2 150.4 -44.4 146.4 -53.6 142.4 C-54.7 141.9 -55.8 141.4 -56.9 140.9 C-60.8 139.3 -64.6 137.6 -68.4 135.9 C-85.1 128.7 -101.8 121.5 -118.6 114.3 C-119.5 113.9 -120.4 113.5 -121.4 113.1 C-124.1 112 -126.7 110.8 -129.4 109.7 C-130.2 109.3 -131 109 -131.8 108.6 C-135.5 107 -139.2 105.5 -143 104 C-141.4 100.1 -138.7 97.3 -135.8 94.2 C-134.8 93.2 -133.8 92.1 -132.8 91 C-132.3 90.5 -131.8 90 -131.3 89.4 C-129.7 87.7 -128.1 85.8 -126.6 84 C-120 76.5 -112.9 69.4 -105.3 62.9 C-103.4 61.4 -101.6 59.8 -99.8 58.1 C-90.4 49.7 -80.4 42.2 -70 35 C-69.4 34.6 -68.8 34.2 -68.2 33.8 C-18.6 0 -18.6 0 0 0 Z " fill="#FEEB98" transform="translate(433,274)"/>
<path d="M0 0 C0.9 0.5 1.9 1.1 2.8 1.6 C3.8 2.2 4.8 2.7 5.8 3.3 C6.9 3.9 7.9 4.5 8.9 5.1 C15.6 8.9 22.3 12.8 29 16.7 C35.6 20.7 42.4 24.5 49.1 28.3 C49.3 34.1 49.5 39.9 49.6 45.8 C49.7 47.7 49.7 49.7 49.8 51.7 C50.5 68.1 50.5 68.1 47 73.4 C44.5 75.7 41.9 77.5 39.1 79.3 C37.9 80.4 36.8 81.4 35.7 82.6 C35 83.3 35 83.3 34.2 84.1 C28.1 90.6 24.3 96.8 21.1 105.3 C17.7 104.7 14.5 103.8 11.3 102.6 C10.3 102.3 9.4 102 8.5 101.6 C7.5 101.2 6.5 100.9 5.4 100.5 C4.4 100.1 3.3 99.7 2.3 99.3 C-1.1 98.1 -4.4 96.9 -7.7 95.6 C-9.9 94.8 -12.1 94 -14.3 93.2 C-25.9 88.9 -37.4 84.6 -48.9 80.3 C-49.6 80.1 -50.3 79.8 -50.9 79.6 C-54.7 78.2 -58.4 76.8 -62.1 75.3 C-63 74.9 -63.8 74.6 -64.7 74.2 C-65.6 73.8 -66.5 73.5 -67.4 73.1 C-68.8 72.6 -68.8 72.6 -70.2 72 C-72.4 71.1 -74.7 70.2 -76.9 69.3 C-76.9 65.1 -74.6 62.6 -72.2 59.2 C-71.7 58.5 -71.3 57.8 -70.7 57.1 C-66.5 51.1 -62.2 45.1 -57.8 39.1 C-54.6 34.6 -51.3 30.1 -48.1 25.6 C-47.1 24.1 -46.1 22.7 -45.1 21.2 C-42.9 18.2 -40.8 15.1 -38.7 11.9 C-34.2 5.1 -30.7 2.7 -22.9 0.3 C-19.6 -1.1 -16.2 -2.5 -12.9 -3.9 C-7.9 -5.2 -4.3 -2.4 0 0 Z " fill="#96747D" transform="translate(582.921875,661.6875)"/>
<path d="M0 0 C4.5 6.7 3.7 15.6 2.3 23.2 C-4.2 55.6 -24.5 86.4 -52 104.7 C-63.5 112 -76.5 117.6 -89.8 120.4 C-90.8 120.6 -91.7 120.8 -92.7 121 C-96.1 121.7 -99.6 122.3 -103 123 C-103.7 123.1 -104.3 123.3 -105 123.4 C-127.6 127.8 -149 129.9 -172 129 C-170.3 123.6 -168 119 -165.3 114.1 C-164.9 113.3 -164.4 112.5 -164 111.7 C-160.8 106.2 -157.5 101.5 -153 97 C-152 95.8 -150.9 94.5 -149.9 93.3 C-125.4 65.6 -93.6 53.3 -57.9 45.9 C-39.6 42 -19.1 36.6 -7.9 20 C-5.8 16.1 -4.3 11.8 -2.9 7.6 C-2 5 -1 2.5 0 0 Z " fill="#79BF14" transform="translate(721,307)"/>
<path d="M0 0 C1.3 -0 2.7 -0 4 -0 C5.9 -0 5.9 -0 7.9 -0 C9 -0 10.2 -0 11.4 -0 C14.5 0.1 17.5 0.5 20.6 1.1 C20 10.2 18.8 19.2 17.5 28.2 C17.3 29.6 17.1 31 16.9 32.5 C16.3 36.3 15.8 40.1 15.2 43.8 C14.6 47.8 14.1 51.7 13.5 55.6 C13.3 57.2 13 58.8 12.8 60.3 C12.7 61.1 12.6 61.8 12.5 62.6 C12.1 64.9 11.8 67.2 11.5 69.5 C10 79.8 8.5 90.1 7 100.4 C5.6 110.6 4.1 120.9 2.4 131.1 C2.3 132 2.1 133 2 134 C1.8 134.9 1.7 135.8 1.5 136.7 C1.4 137.5 1.3 138.2 1.1 139 C0.6 141.3 -0.3 143.1 -1.4 145.1 C-2.9 142.3 -3.9 139.6 -4.9 136.6 C-9.4 122.1 -14.5 111.1 -24.5 99.5 C-26.4 97.1 -26.4 97.1 -27.4 94.9 C-28.7 92.6 -29.9 92.2 -32.4 91.1 C-33.9 89.9 -35.5 88.7 -37 87.5 C-40.6 84.8 -43.8 82.9 -47.9 81.2 C-48.7 80.9 -49.5 80.6 -50.3 80.2 C-51.9 79.6 -53.5 79.1 -55.1 78.5 C-59.7 76.8 -61.9 75 -64 70.5 C-64.8 68.4 -65.6 66.3 -66.4 64.1 C-66.9 62.8 -67.4 61.4 -68 60.1 C-69.8 55.5 -71.6 50.9 -73.3 46.3 C-74.5 43.2 -75.7 40.1 -76.9 37 C-77.2 36.2 -77.5 35.5 -77.8 34.7 C-80.1 28.6 -82.7 22.7 -85.3 16.7 C-86.4 14.1 -86.4 14.1 -86.4 12.1 C-66.8 6.5 -47.6 3.2 -27.4 1.1 C-26.4 1 -25.4 0.9 -24.4 0.8 C-16.3 0.1 -8.2 -0 0 0 Z " fill="#FED28B" transform="translate(538.375,254.875)"/>
<path d="M0 0 C4.9 1.6 9.7 3.3 14.6 5.1 C18.2 6.4 21.9 7.6 25.7 8.5 C27.4 8.9 29 9.3 30.7 9.7 C39.4 12 47.9 12.5 56.9 12.5 C71.2 12.6 84.5 14.3 98.1 19.1 C98.9 19.4 99.7 19.7 100.6 20 C112.8 24.6 122.8 31.8 132 41 C132.7 41.7 133.4 42.4 134.2 43.1 C142.5 51.7 159 71.5 159 84 C143.8 85.1 129.9 83.4 115 80.4 C113.8 80.1 113.8 80.1 112.5 79.9 C70.1 71.2 27.7 42.3 3.4 6.4 C0 1.2 0 1.2 0 0 Z " fill="#79BF14" transform="translate(364,352)"/>
<path d="M0 0 C7.2 2 14.2 4.5 21.1 7.3 C23.2 8.1 25.2 8.9 27.2 9.7 C28.2 10.1 29.2 10.5 30.2 10.9 C43.3 16 56.5 20.7 69.8 25.3 C76.4 27.6 82.8 30.1 89.3 32.9 C92.8 34.3 96.4 35.7 100 37 C100.3 42.4 100.3 42.4 99 45.2 C97.6 49 97.5 52.7 97.4 56.8 C97.3 57.6 97.3 58.4 97.3 59.2 C97.2 61.1 97.1 63.1 97 65 C95.7 65.7 94.4 66.3 93.1 67 C92.4 67.4 91.7 67.7 90.9 68.1 C89 69 89 69 87 69 C87 68 87 67 87 66 C86.1 65.7 85.3 65.5 84.4 65.2 C81.1 64 78 62.7 74.9 61.2 C73.8 60.6 72.6 60.1 71.5 59.6 C69.1 58.4 66.7 57.3 64.4 56.2 C63.3 55.6 62.1 55.1 61 54.6 C59.9 54.1 58.9 53.6 57.9 53.1 C54.9 52 53.1 51.6 50 52 C47.5 53.6 45.3 55.1 43 56.9 C35.3 62.9 35.3 62.9 31.1 65.3 C24.8 68.8 24.8 68.8 21.2 74.7 C21.1 77.6 21.1 77.6 21.5 80.5 C22 84.3 22.3 88.1 22.6 91.9 C22.6 92.9 22.6 92.9 22.7 94 C22.8 95.7 22.9 97.3 23 99 C18.9 101.1 14.8 103.1 10.7 105.1 C9.3 105.8 7.9 106.5 6.5 107.2 C-6.5 113.7 -6.5 113.7 -12.1 112.6 C-14.2 111.8 -14.2 111.8 -16 111 C-17 110.7 -17.9 110.3 -18.9 110 C-19.7 109.7 -20.5 109.3 -21.3 109 C-22.1 108.7 -22.9 108.3 -23.7 108 C-25.9 107.1 -27.9 106.1 -30 105 C-28.1 97.6 -25.8 90.5 -23.2 83.4 C-20.6 76.1 -19.7 70.1 -19.8 62.4 C-19.8 61.5 -19.8 60.5 -19.8 59.5 C-19.8 46.3 -19.8 46.3 -22.1 33.3 C-22 27.5 -17.7 23.3 -14 19 C-13.7 19 -13.3 19 -13 19 C-13.1 20.2 -13.2 21.5 -13.2 22.7 C-14 31.3 -14 31.3 -11.8 39.3 C-9.9 40.9 -8.1 41.9 -6 43 C-4.5 44.1 -3 45.2 -1.4 46.4 C2.2 49 4.5 49.6 9 49 C12.1 47.9 14.9 46.5 17.8 45.1 C18.6 44.7 19.4 44.4 20.2 44 C24.4 41.9 24.4 41.9 26.7 37.9 C26.9 35.6 27 33.3 27 31 C27.3 29.1 27.3 29.1 27.7 27.2 C28.1 23 28.2 20.1 27 16 C22.1 10.5 14.6 6.4 7.4 5.6 C3.6 6.1 0.9 7.2 -2.4 9 C-3.5 9.6 -4.5 10.1 -5.6 10.7 C-6.4 11.1 -7.2 11.6 -8 12 C-5.9 7.5 -3 3.9 0 0 Z " fill="#96757E" transform="translate(499,738)"/>
<path d="M0 0 C8.3 -0.4 16 1.2 24 3 C24.7 3.1 25.3 3.3 26 3.4 C34.6 5.3 43.1 7.5 51.5 10 C52.3 10.2 53.1 10.5 54 10.7 C58.7 12.2 63.2 13.9 67.7 16 C70.1 17 72.4 18 74.8 18.9 C80.7 21.2 86.3 23.9 92 26.6 C93.6 27.4 93.6 27.4 95.3 28.2 C104.7 32.8 113.9 37.8 123 43 C121.1 48 117.6 49.5 112.9 51.8 C106 54.3 98.3 53.8 91 53.8 C87.2 53.7 83.3 53.8 79.5 53.8 C77.6 53.9 75.7 53.9 73.8 53.9 C43.2 54.2 15.4 59 -7.9 80.2 C-10 82 -10 82 -12 82 C-11.3 72.9 -10.1 63.9 -8.8 54.9 C-8.5 53.4 -8.3 51.9 -8.1 50.4 C-7.6 47.2 -7.2 44 -6.7 40.9 C-6.1 36.8 -5.5 32.7 -4.9 28.6 C-4.5 25.5 -4 22.3 -3.6 19.2 C-3.4 17.7 -3.1 16.2 -2.9 14.7 C-2.6 12.6 -2.3 10.5 -2 8.4 C-1.8 7.2 -1.7 6 -1.5 4.8 C-1 2 -1 2 0 0 Z " fill="#FEE392" transform="translate(580,259)"/>
<path d="M0 0 C1 1.7 2 3.4 2.9 5.2 C8.8 15.5 16.2 25.6 27 31 C27.8 31.4 28.5 31.8 29.3 32.2 C38.1 36 47.6 35.8 57 36 C55.4 41.1 52.3 45.1 49.1 49.4 C48.1 50.9 47 52.4 45.9 53.9 C45.4 54.6 44.9 55.3 44.4 56 C42.6 58.6 40.8 61.3 39 64 C37.7 60 38.9 58.1 40.4 54.4 C41.2 51.4 41.1 49.9 40 47 C38.2 44.7 36.5 42.7 34.4 40.6 C33.9 40.1 33.4 39.5 32.9 38.9 C30 35.9 30 35.9 26 34.8 C23.9 35.1 22 35.5 20 36 C18.5 36.3 18.5 36.3 16.9 36.6 C11.4 37.8 11.4 37.8 7 41.1 C6.7 42 6.3 43 6 44 C5.7 44.8 5.5 45.5 5.2 46.3 C3.6 51 2.4 55.1 3 60 C4.7 62.4 6.2 64.3 8.2 66.3 C8.7 66.8 9.2 67.4 9.7 67.9 C11.8 70.2 13.6 71.8 16.5 72.9 C19.5 73 21.7 72.4 24.6 71.5 C28.2 70.3 30.4 69.7 34 71 C33.1 72.1 33.1 72.1 32.2 73.3 C27 79.9 22.1 86.7 17.3 93.7 C13.7 99 10 104.3 6.2 109.5 C5.7 110.2 5.1 111 4.6 111.7 C1.1 116.5 -2.4 121.3 -6 126 C-7.7 123.7 -9.4 121.4 -10.9 119 C-15.9 111.6 -21 104.3 -29.1 99.9 C-31.4 97.6 -31.5 96 -31.6 92.8 C-31.6 92.1 -31.6 91.4 -31.6 90.7 C-31.6 90 -31.7 89.2 -31.7 88.5 C-31.7 86 -31.8 83.6 -31.8 81.1 C-31.8 79.4 -31.8 77.7 -31.8 76 C-31.9 72.5 -31.9 68.9 -31.9 65.3 C-31.9 60.7 -32 56.2 -32.1 51.6 C-32.2 48.1 -32.2 44.6 -32.2 41.1 C-32.2 39.4 -32.2 37.7 -32.3 36 C-32.6 22.9 -32.6 22.9 -28.6 18.2 C-25.8 16.2 -23.1 14.6 -20 13 C-18.8 12.2 -17.7 11.5 -16.5 10.6 C-15.1 9.7 -15.1 9.7 -13.7 8.8 C-10.4 6.7 -7.3 4.5 -4.4 2 C-2 0 -2 0 0 0 Z " fill="#96747D" transform="translate(480,631)"/>
<path d="M0 0 C1.9 3.7 -0.4 7.8 -1.6 11.5 C-7.6 26.8 -20.6 34.4 -34.8 40.8 C-40.7 43.3 -46.7 44.1 -52.9 44.9 C-55.3 45.3 -57.6 45.6 -59.9 46 C-61.1 46.1 -62.2 46.3 -63.5 46.5 C-96 51.2 -123.4 57.7 -148 81 C-148.8 81.8 -149.6 82.5 -150.4 83.3 C-155.1 87.9 -159.2 92.6 -163 98 C-163.6 98.9 -164.2 99.7 -164.9 100.6 C-168.8 106.1 -168.8 106.1 -172 112 C-173.4 108.3 -172.6 106 -171.3 102.4 C-170.9 101.3 -170.6 100.2 -170.2 99.1 C-168.5 94.7 -166.8 90.3 -165 86 C-164.7 85.4 -164.5 84.8 -164.2 84.2 C-159.4 72.6 -154.3 62.5 -146.2 52.9 C-145.7 52.3 -145.2 51.8 -144.8 51.2 C-137.8 43.2 -130.1 36.9 -120.8 31.8 C-119.9 31.2 -119 30.7 -118 30.2 C-110.8 26.2 -104.1 23.8 -96 22 C-93.5 21.2 -91 20.4 -88.5 19.6 C-81.2 17.8 -73.8 17.9 -66.3 17.9 C-64.1 17.9 -61.8 17.9 -59.5 17.8 C-55.9 17.8 -52.4 17.8 -48.8 17.8 C-25.9 18 -25.9 18 -6.5 6.6 C-6 6.1 -5.6 5.6 -5.1 5.1 C-4.6 4.6 -4.1 4.1 -3.6 3.6 C-2.4 2.4 -1.2 1.2 0 0 Z " fill="#9FD904" transform="translate(717,302)"/>
<path d="M0 0 C0.3 1.1 0.6 2.1 0.8 3.2 C5.1 18.9 11.6 31.5 22 44 C22.8 44.9 23.5 45.8 24.3 46.8 C31.3 55 39.3 60.5 49 65 C46.6 67.4 45.1 67.7 41.9 68.6 C40.8 68.9 39.8 69.2 38.7 69.5 C37.6 69.8 36.5 70.1 35.3 70.4 C34.2 70.7 33 71 31.9 71.3 C29.6 71.9 27.4 72.5 25.1 73.2 C22.5 73.9 19.9 74.6 17.3 75.3 C16 75.7 14.7 76.1 13.4 76.4 C12.4 76.7 11.3 77.1 10.2 77.4 C1 79.2 -5.4 76.7 -14 73.4 C-15.8 72.7 -15.8 72.7 -17.7 72 C-20.1 71.1 -22.5 70.1 -24.8 69.2 C-28.6 67.8 -32.3 66.4 -36 65 C-37.2 64.5 -38.4 64.1 -39.7 63.6 C-43.2 62.3 -46.7 61 -50.3 59.7 C-61.1 55.7 -71.9 51.7 -82.6 47.6 C-83.5 47.2 -84.3 46.9 -85.2 46.6 C-87.2 45.8 -89.1 44.9 -91 44 C-91.5 42.5 -91.5 42.5 -92 41 C-89.6 39.8 -87.2 38.6 -84.8 37.4 C-83.7 36.9 -83.7 36.9 -82.7 36.4 C-77.6 33.9 -77.6 33.9 -75 34.2 C-73 35 -73 35 -71.7 36.4 C-67.9 40 -62.4 41.7 -57.7 43.8 C-55.6 44.7 -53.6 45.7 -51.6 46.6 C-50.3 47.2 -49 47.8 -47.7 48.4 C-46.6 48.9 -45.4 49.4 -44.2 50 C-40.8 51.1 -39.3 51.2 -36 50 C-34.1 49.1 -34.1 49.1 -32.4 47.8 C-31.8 47.4 -31.1 46.9 -30.5 46.5 C-29.8 46 -29.1 45.5 -28.4 45 C-27.7 44.5 -27 44 -26.3 43.5 C-24.9 42.5 -23.5 41.5 -22.1 40.4 C-20.2 39.1 -18.2 37.9 -16.3 36.6 C-10.5 33.1 -10.5 33.1 -7.2 27.5 C-7.2 24.8 -7.5 22.6 -8 20 C-8.8 14.2 -9.1 8.8 -9 3 C-2.2 0 -2.2 0 0 0 Z " fill="#96757E" transform="translate(597,813)"/>
<path d="M0 0 C23.7 0 23.7 0 31.7 1.9 C32.6 2.2 33.5 2.4 34.5 2.6 C40.7 4.3 45.5 6.3 49.6 11.5 C52 15.8 52.8 20.1 53 25 C53.1 25.8 53.1 26.6 53.2 27.4 C53 30.4 52.2 32 50.6 34.7 C50.1 35.6 49.6 36.4 49.1 37.3 C48.5 38.3 48 39.2 47.4 40.1 C46.6 41.5 46.6 41.5 45.8 43 C44.7 44.8 43.6 46.7 42.5 48.6 C41.3 50.5 40.2 52.4 39 54.4 C35.3 60.7 30.7 65.9 25.6 71.2 C23.8 73.1 22.1 75.1 20.4 77.2 C18.4 79.5 16.7 81.2 14.2 83 C13.5 83.5 12.8 84 12.1 84.5 C11.4 85 10.7 85.5 10 86 C7.9 87.6 5.8 89.3 3.7 90.9 C2 92 2 92 0 92 C0 61.6 0 31.3 0 0 Z " fill="#96757E" transform="translate(641,632)"/>
<path d="M0 0 C2.7 0.7 5.3 1.5 7.9 2.5 C8.9 2.9 9.9 3.3 10.9 3.7 C11.9 4.1 13 4.5 14 4.9 C15.1 5.3 16.2 5.7 17.3 6.1 C20.5 7.3 23.6 8.5 26.7 9.7 C29.3 10.7 31.8 11.6 34.3 12.6 C35 12.8 35.6 13 36.2 13.3 C40.5 14.9 44.8 16.4 49.1 18 C69.3 25.4 89.5 33 109.7 40.7 C109.7 42 109.7 43.3 109.7 44.7 C78.4 48.2 45.6 48.7 14.8 41.2 C11.4 40.4 7.9 39.8 4.5 39.2 C-7.4 37 -18.9 33.7 -30.3 29.7 C-30.3 26.7 -30.3 26.7 -28.4 24.7 C-27.5 23.9 -26.7 23.2 -25.8 22.4 C-24.9 21.6 -23.9 20.8 -23 20 C-21.4 18.6 -19.7 17.2 -18.1 15.8 C-14 12.3 -10.3 8.6 -6.8 4.5 C-6.3 3.9 -5.8 3.3 -5.3 2.7 C-4.8 2.1 -4.4 1.5 -3.9 0.9 C-2.3 -0.3 -2.3 -0.3 0 0 Z " fill="#96747D" transform="translate(465.27734375,851.308837890625)"/>
<path d="M0 0 C5.4 4.7 10 9.8 14 15.7 C14.9 16.9 14.9 16.9 15.8 18.1 C24.5 31 27 48.5 28 63.7 C25 60.2 22.6 56.5 20.2 52.5 C16.8 46.9 13.2 41.7 9 36.7 C8.1 35.6 8.1 35.6 7.3 34.5 C1.8 27.8 -4.8 23.3 -12 18.7 C-12.7 18.2 -13.4 17.8 -14.2 17.3 C-19.1 14.2 -24.4 12.4 -29.9 10.5 C-30.6 10.3 -31.3 10 -32.1 9.8 C-34.4 9 -36.7 8.4 -39 7.7 C-39.7 7.5 -40.5 7.3 -41.2 7.1 C-52.2 4.6 -63.8 5.6 -75 5.8 C-95.3 6 -114.3 5.4 -133 -3.3 C-133 -3.6 -133 -3.9 -133 -4.3 C-132.1 -4.3 -131.3 -4.4 -130.5 -4.5 C-115.7 -5.7 -101 -7.1 -86.4 -9.3 C-85.4 -9.5 -84.3 -9.7 -83.2 -9.8 C-78 -10.7 -73.1 -11.8 -68 -13.3 C-42.8 -17.4 -20.8 -15.8 0 0 Z " fill="#A0D906" transform="translate(501.98046875,353.26953125)"/>
<path d="M0 0 C3.8 1.6 6.8 4.1 9.9 6.8 C10.4 7.2 11 7.7 11.6 8.2 C17.8 13.6 23.6 19.3 29.4 25.1 C31.2 27 33 28.8 34.8 30.6 C35.9 31.8 37.1 32.9 38.3 34.1 C38.8 34.6 39.3 35.2 39.9 35.7 C47 42.9 47 42.9 47 46 C29.9 53 12.8 59.9 -4.4 66.6 C-5.9 67.2 -7.4 67.8 -9 68.4 C-10.1 68.9 -10.1 68.9 -11.2 69.3 C-15.1 70.8 -19 72.4 -22.8 74 C-23.6 74.4 -24.4 74.7 -25.2 75 C-26.7 75.7 -28.1 76.3 -29.6 77 C-34.7 79.1 -34.7 79.1 -38 78 C-37.4 77.3 -36.8 76.6 -36.2 75.9 C-25.2 63.2 -17.1 49.2 -10 34 C-9.5 33 -9 31.9 -8.5 30.9 C-6.1 25.4 -5.1 19.4 -3.9 13.6 C-3.4 11.3 -2.8 8.9 -2.3 6.5 C-2 5 -2 5 -1.6 3.4 C-1 1 -1 1 0 0 Z " fill="#FEEB98" transform="translate(734,326)"/>
<path d="M0 0 C0.3 0.7 0.7 1.3 1 2 C0 4.5 -1.1 6.9 -2.2 9.4 C-2.6 10.1 -3 10.9 -3.3 11.6 C-7.5 20.2 -12.1 28.4 -16.7 36.7 C-18 39 -19.2 41.2 -20.5 43.5 C-23.1 48.3 -25.9 53 -28.8 57.7 C-29.3 58.6 -29.8 59.4 -30.3 60.3 C-43.1 81.4 -43.1 81.4 -48 87 C-48.7 87 -49.3 87 -50 87 C-50.5 89 -50.5 89 -51 91 C-51.7 91 -52.3 91 -53 91 C-53.3 91.6 -53.5 92.1 -53.8 92.7 C-55.1 95.2 -56.7 97.1 -58.5 99.2 C-59.1 100 -59.7 100.7 -60.3 101.4 C-62 103 -62 103 -64 103 C-64.3 103.6 -64.5 104.1 -64.8 104.7 C-69.8 114 -79.5 119.1 -88.3 124 C-89.8 124.9 -91.2 125.7 -92.6 126.6 C-104.1 133.3 -118.8 137.1 -132 136 C-135.1 135 -135.1 135 -137 134 C-134 132 -132 131.3 -128.5 130.5 C-127.4 130.2 -126.3 130 -125.2 129.7 C-122.4 129.1 -119.5 128.6 -116.6 128.2 C-106.2 126.3 -96.2 122 -89 114 C-86.5 110.3 -86.7 107.4 -86.8 103.1 C-86.8 101.9 -86.8 101.9 -86.8 100.8 C-86.9 93 -88.1 85.5 -90 78 C-89.3 78 -88.7 78 -88 78 C-60.6 78.4 -60.6 78.4 -36.9 67.1 C-31.5 60.7 -31.1 54.4 -31.6 46.5 C-32.2 39.5 -33.5 32.8 -35 26 C-35.4 23.8 -35.8 21.7 -36.2 19.5 C-36.3 18.6 -36.5 17.7 -36.7 16.8 C-36.8 15.9 -36.8 15.9 -37 15 C-36.2 14.9 -35.4 14.8 -34.6 14.7 C-21.3 12.9 -9.7 9.7 0 0 Z " fill="#BDD9EA" transform="translate(812,699)"/>
<path d="M0 0 C21.7 6 21.7 6 25.9 12.7 C27.3 17 27.1 21.2 26.7 25.7 C26.5 28 26.5 28 27.4 31.3 C28.1 35.2 28.2 37 26.6 40.7 C21.7 45.6 15.6 49.1 9.6 52.5 C7.5 53.7 7.5 53.7 5.6 55.7 C1.9 55.3 -1.2 54 -4.6 52.5 C-5.6 52 -6.6 51.6 -7.6 51.1 C-8.6 50.7 -9.6 50.2 -10.6 49.7 C-11.6 49.3 -12.6 48.8 -13.7 48.3 C-21.2 44.9 -21.2 44.9 -22.4 43.7 C-22.6 41.9 -22.9 40 -23.1 38.1 C-23.3 36.5 -23.5 34.9 -23.7 33.3 C-24.6 27.1 -25.4 20.8 -23.4 14.7 C-19.2 9.4 -13.2 6 -7.4 2.8 C-1.8 -0.2 -1.8 -0.2 0 0 Z " fill="#FE9D04" transform="translate(553.360595703125,799.26953125)"/>
<path d="M0 0 C0.8 0.6 1.6 1.1 2.5 1.7 C3.3 2.2 3.3 2.2 4.2 2.8 C5.4 3.6 6.5 4.4 7.7 5.2 C14.2 9.7 21.5 11.7 29 14 C29 14.9 28.9 15.8 28.9 16.7 C28.8 20.1 28.7 23.4 28.7 26.8 C28.6 28.2 28.6 29.6 28.5 31.1 C28.3 39.1 28.1 45.6 33.3 52.3 C40 59.1 46.8 63.1 56.5 63.4 C59 63.4 61.4 63.3 63.9 63.3 C65.7 63.3 65.7 63.3 67.6 63.3 C73.6 63.3 79.2 63.1 85.1 61.4 C88.4 60.7 91.6 60.9 95 61 C94 65.9 92.9 70.4 91 75 C89.8 80.6 89.7 86.2 89.4 91.9 C89.4 93.3 89.4 93.3 89.3 94.8 C89.2 97.2 89.1 99.6 89 102 C83.5 100.7 78.9 97.8 74 95 C73.1 94.5 72.2 94 71.2 93.4 C63.6 88.9 58 83.4 52 77 C50.7 75.7 50.7 75.7 49.4 74.5 C45.5 70.5 41.7 66.2 38 62 C37.3 61.2 36.6 60.5 35.9 59.7 C28.3 51 22.7 41 16.8 31.1 C15 28 13.1 24.9 11.3 21.8 C10.1 19.9 8.9 17.9 7.8 15.9 C7.2 15 6.7 14.1 6.1 13.2 C3.5 8.9 1.3 4.9 0 0 Z " fill="#FFD2D7" transform="translate(279,725)"/>
<path d="M0 0 C2 1.9 4 3.8 5.9 5.7 C6.6 6.3 7.3 7 8 7.7 C13 12.5 13 12.5 13.1 17.6 C12.8 18.9 12.4 20.3 12 21.6 C11.7 23.1 11.5 24.6 11.2 26 C8.4 37.5 8.4 37.5 5 40.3 C2.7 41.1 0.5 41.4 -2 41.6 C-3.5 42 -5 42.4 -6.5 42.8 C-8 43.1 -9.5 43.4 -11 43.6 C-11.6 43.8 -12.3 43.9 -13 44.1 C-15.3 44.4 -16.7 44.4 -19 43.6 C-21.5 41.4 -23.7 38.9 -25.8 36.2 C-27.6 34 -29.4 32.3 -31.6 30.5 C-34 27.6 -34 27.6 -34.1 24.2 C-30.5 7.2 -30.5 7.2 -26 2.6 C-22.9 1.5 -19.8 0.8 -16.6 -0.1 C-15.8 -0.3 -14.9 -0.5 -14.1 -0.8 C-13.2 -1 -12.4 -1.2 -11.5 -1.4 C-10.8 -1.6 -10 -1.8 -9.2 -2 C-5.6 -2.5 -3 -2.1 0 0 Z " fill="#FBF8F5" transform="translate(578.96044921875,705.363525390625)"/>
<path d="M0 0 C3.8 2.5 5.6 5.7 7 10 C7.1 12.6 7.2 15.2 7.1 17.8 C7.1 18.5 7.1 19.2 7.1 19.9 C7.1 21.6 7 23.3 7 25 C5.1 25.6 3.2 26.3 1.3 26.9 C0.3 27.3 -0.8 27.7 -1.9 28 C-6.5 29.5 -10.6 30.1 -15.4 30.1 C-16.5 30.1 -17.5 30.1 -18.5 30.1 C-19.6 30.1 -20.6 30.1 -21.7 30.1 C-23.3 30.1 -23.3 30.1 -24.9 30.1 C-25.9 30.1 -26.9 30.1 -27.9 30.1 C-29.3 30.1 -29.3 30.1 -30.7 30.1 C-33 30 -33 30 -35 29 C-35 28.3 -35 27.7 -35 27 C-35.7 27 -36.3 27 -37 27 C-41.7 18.7 -44.3 9.6 -44 0 C-31.8 -7.3 -12.5 -6.1 0 0 Z " fill="#FEC140" transform="translate(553,602)"/>
<path d="M0 0 C0 20.8 0 41.6 0 63 C-5 59.3 -9.8 55.6 -14.5 51.6 C-15.1 51.1 -15.6 50.6 -16.2 50.1 C-17.8 48.7 -19.4 47.4 -21 46 C-21.8 45.3 -22.6 44.7 -23.4 44 C-25.3 42.3 -27.1 40.7 -29 39 C-29.6 38.5 -30.2 37.9 -30.8 37.4 C-35.9 32.8 -41.8 25.9 -42.1 18.8 C-40.3 15.8 -37.1 15.6 -33.9 14.8 C-23.6 11.9 -14.4 7.2 -5.2 1.8 C-2 0 -2 0 0 0 Z " fill="#96757D" transform="translate(440,659)"/>
<path d="M0 0 C0 14.9 0 29.7 0 45 C-4.9 43.4 -8 42 -12.2 39.2 C-16.1 36.7 -20.1 34.3 -24.2 32.1 C-32 28 -39.5 23.5 -47 19 C-43.2 15.8 -38.8 13.8 -34.2 11.7 C-33 11.1 -33 11.1 -31.7 10.5 C-9.1 0 -9.1 0 0 0 Z " fill="#96757E" transform="translate(632,634)"/>
<path d="M0 0 C1.3 4 0.2 5.5 -1.4 9.4 C-5.5 20.6 -6.4 34.5 -2 45.8 C3.5 55 16.1 58.9 26 61.5 C27 61.8 27 61.8 28 62 C29.3 62.3 30.7 62.7 32 63 C31.4 66.6 30.4 69.8 29.1 73.1 C28.7 74.1 28.4 75.1 28 76.1 C27.6 77.1 27.2 78.2 26.8 79.2 C23 89.1 19.7 98.9 17 109 C4 97.7 -2.4 66.7 -4.6 50.3 C-4.9 47.6 -5.5 45.1 -6.2 42.4 C-9.4 28.3 -7.2 12.4 0 0 Z " fill="#FFD2D7" transform="translate(247,584)"/>
<path d="M0 0 C0.7 0 1.3 0 2 0 C2.3 8.4 2.2 15.7 -0.2 23.9 C-1 26.9 -1.4 29.8 -1.8 32.9 C-2.9 40.8 -5.6 48 -8.5 55.5 C-9 56.8 -9.5 58.2 -10 59.5 C-12 64.7 -13.9 69.9 -16 75 C-16.3 75 -16.7 75 -17 75 C-17.1 73.7 -17.2 72.4 -17.3 71.1 C-18.6 53.9 -22.7 38.5 -34 25 C-34 24.3 -34 23.7 -34 23 C-33.4 22.8 -32.9 22.6 -32.3 22.4 C-13.5 16.2 -13.5 16.2 -1 2 C-0.7 1.3 -0.3 0.7 0 0 Z " fill="#BDD8EA" transform="translate(835,613)"/>
<path d="M0 0 C1 0 2 0 3 0 C2.9 1.9 2.9 1.9 2.8 3.8 C2.5 14.1 3.1 22.5 6.9 32.1 C8 35 8 35 8 38 C7.1 38 6.1 38 5.2 38 C1.7 37.9 -1.8 37.9 -5.2 37.9 C-6.7 37.9 -8.2 37.9 -9.7 37.8 C-11.9 37.8 -14.1 37.8 -16.2 37.8 C-17.5 37.8 -18.8 37.8 -20.2 37.8 C-27.2 38.2 -32.6 39.5 -37.4 44.9 C-44.4 54.3 -45.2 64.6 -46 76 C-46.7 76 -47.3 76 -48 76 C-50 65.6 -48.4 54.9 -43.1 45.7 C-40.1 41.4 -36.9 37.5 -33 34 C-32.3 34 -31.7 34 -31 34 C-30.7 33.4 -30.4 32.8 -30.1 32.2 C-29 30 -29 30 -27 27 C-26.3 27 -25.7 27 -25 27 C-24.8 26.4 -24.5 25.8 -24.2 25.2 C-22.8 22.7 -21.2 20.9 -19 19 C-18.3 19 -17.7 19 -17 19 C-16.5 17.5 -16.5 17.5 -16 16 C-15.3 16 -14.7 16 -14 16 C-13.8 15.4 -13.5 14.8 -13.2 14.2 C-11.8 11.7 -10.2 9.9 -8 8 C-7.3 8 -6.7 8 -6 8 C-5.7 7 -5.3 6 -5 5 C-3.6 3.3 -3.6 3.3 -2 2 C-1.3 2 -0.7 2 0 2 C0 1.3 0 0.7 0 0 Z " fill="#BED9EA" transform="translate(700,729)"/>
<path d="M0 0 C4.8 1.6 5.8 5.9 8.1 10.2 C10.2 13.3 11.5 14 15 15 C15 15.7 15 16.3 15 17 C12.6 18.9 10.2 20.6 7.7 22.4 C6.9 22.9 6.2 23.4 5.4 24 C-0.5 28 -6.4 32 -12.4 35.8 C-13.2 36.3 -14 36.9 -14.8 37.4 C-15.6 37.9 -16.4 38.4 -17.1 38.9 C-18.2 39.5 -18.2 39.5 -19.2 40.2 C-21 41 -21 41 -24 40 C-24.9 37.4 -25.5 35 -26.1 32.3 C-26.4 31.2 -26.4 31.2 -26.6 30.2 C-27.6 26.1 -28.4 22.1 -29 18 C-28.4 17.7 -27.9 17.4 -27.3 17.1 C-24.7 15.7 -22.1 14.3 -19.6 12.9 C-18.7 12.5 -17.8 12 -16.9 11.5 C-11.4 8.5 -6.6 5.3 -1.9 1.2 C-1 0.6 -1 0.6 0 0 Z " fill="#FEFEFE" transform="translate(752,854)"/>
<path d="M0 0 C2.8 0.9 4.6 1.9 6.9 3.6 C8.1 4.5 8.1 4.5 9.4 5.4 C10.7 6.3 10.7 6.3 12 7.2 C13.7 8.5 15.5 9.8 17.3 11.1 C18.2 11.7 19.1 12.3 20 13 C23.7 15.6 27.4 18.1 31.1 20.6 C31.8 21 32.4 21.4 33 21.8 C34.5 22.8 36.1 23.8 37.6 24.8 C38.6 25.5 39.6 26.1 40.6 26.8 C40 30.7 38.4 33.1 35.6 35.8 C32.7 36.9 31.5 37.2 28.6 36.8 C24.5 34.9 20.8 32.4 17 29.9 C14.9 28.5 12.7 27.1 10.6 25.7 C9.6 25 8.5 24.3 7.5 23.7 C2.8 20.6 -2.1 18 -7.1 15.4 C-9.4 13.8 -9.4 13.8 -10.4 11.9 C-10.4 9.2 -9.6 7.9 -8.2 5.7 C-7.5 4.7 -7.5 4.7 -6.8 3.6 C-4.8 1 -3.4 -0.3 0 0 Z " fill="#BDD9EA" transform="translate(675.41650390625,777.199462890625)"/>
<path d="M0 0 C7 6.6 7 6.6 7.8 10.4 C7.6 12.7 7 14.8 6.3 17 C6.1 18.2 6.1 18.2 6 19.5 C5.5 22.3 5.1 23.8 3.3 26 C-2.5 28.7 -8.4 30 -14.7 30 C-16.5 28.4 -16.5 28.4 -18.2 26.3 C-20.2 23.8 -21.7 22 -24.3 20.2 C-26.1 17.4 -25.7 16.4 -25.1 13.2 C-24.7 11.5 -24.2 9.8 -23.7 8 C-23.5 6.8 -23.3 5.6 -23.1 4.4 C-21.7 1 -21.7 1 -18.6 -0.6 C-17.4 -0.9 -16.2 -1.2 -14.9 -1.5 C-13.7 -1.8 -12.5 -2.1 -11.2 -2.4 C-6.3 -3.2 -4 -2.9 0 0 Z " fill="#FF9E05" transform="translate(577.7109375,712.96875)"/>
<path d="M0 0 C2.7 1.1 4.6 2.3 7 4 C7 4.7 7 5.3 7 6 C5 7.7 3.1 9.3 1 10.8 C-0.3 11.8 -1.6 12.8 -2.9 13.8 C-3.5 14.3 -4.2 14.8 -4.9 15.4 C-7.7 17.6 -10.5 19.8 -13.2 22.1 C-18.3 26.2 -23.4 30.4 -28.6 34.4 C-29.3 34.9 -30.1 35.5 -30.8 36 C-33.9 37.4 -35.8 36.9 -39 36 C-41.1 34.6 -41.1 34.6 -42.9 32.9 C-43.5 32.4 -44.1 31.8 -44.7 31.3 C-45.1 30.9 -45.6 30.4 -46 30 C-39.1 22.9 -31.7 16.6 -23.7 10.7 C-20.5 8.3 -17.7 5.7 -14.9 2.9 C-10.4 -1.1 -5.7 -1.1 0 0 Z " fill="#FFD2D6" transform="translate(369,741)"/>
<path d="M0 0 C2 1.7 2 1.7 3.8 3.9 C4.4 4.6 5 5.3 5.6 6.1 C7 8 7 8 7 10 C6.2 10.4 5.3 10.8 4.5 11.2 C-3.4 15 -10.7 19.3 -17.9 24.2 C-22.6 27.5 -27.5 30.5 -32.3 33.6 C-33.1 34.2 -34 34.7 -34.8 35.2 C-35.6 35.7 -36.4 36.2 -37.2 36.7 C-37.9 37.2 -38.6 37.6 -39.3 38.1 C-41 39 -41 39 -43 39 C-44 34.3 -44.7 29.6 -43 25 C-38.9 19.7 -32.6 16.4 -27 13 C-25.6 12.1 -24.2 11.3 -22.8 10.4 C-19.3 8.2 -15.7 6.1 -12 4 C-11.4 3.6 -10.8 3.2 -10.2 2.9 C-4.1 -0.9 -4.1 -0.9 0 0 Z " fill="#FFD2D7" transform="translate(318,660)"/>
<path d="M0 0 C7.2 2.3 14.3 5 21.3 7.8 C22.9 8.4 22.9 8.4 24.5 9.1 C31.9 12 39 15.3 46 19 C40.2 25.5 33.4 27.7 25 29 C24 29.2 23.1 29.4 22.1 29.6 C18.5 30.1 16.4 30.2 13 29 C9 24.5 6.5 19.5 4 14 C3.5 13 3 12 2.6 10.9 C0.8 6.9 0 4.4 0 0 Z " fill="#BDD9EA" transform="translate(756,676)"/>
<path d="M0 0 C0.8 0.3 1.7 0.6 2.5 0.9 C12.7 4.7 22.5 9 32.2 13.9 C32.2 18.5 32.2 23.1 32.2 27.9 C28.4 27.1 26.1 26.5 22.8 24.9 C22 24.5 21.1 24.1 20.3 23.6 C19.4 23.2 18.5 22.8 17.6 22.3 C8 17.6 -1.8 13.5 -11.9 9.6 C-14.2 8.7 -16.5 7.8 -18.8 6.9 C-18.3 -0.5 -18.3 -0.5 -16.1 -3.2 C-11 -5.3 -4.9 -1.8 0 0 Z " fill="#BDD9EA" transform="translate(775.8125,659.125)"/>
<path d="M0 0 C-0.4 6.7 -1.1 13.3 -5 19 C-7.5 20.8 -10 22.1 -12.8 23.4 C-17.2 25.6 -21 28.5 -25 31.4 C-28.8 34.3 -32.7 36.8 -37 39 C-40.6 38.2 -41.9 35.9 -44 33 C-45 32.7 -46 32.3 -47 32 C-46.6 29.4 -46.3 28.3 -44.3 26.5 C-38 22.2 -31.5 18.2 -24.9 14.2 C-19.3 10.8 -13.7 7.3 -8.2 3.7 C-2.5 0 -2.5 0 0 0 Z " fill="#FFD2D7" transform="translate(325,680)"/>
<path d="M0 0 C4.9 1.1 8.8 3.5 12.9 6.2 C13.6 6.6 14.3 7 15 7.5 C19.3 10.2 23.6 13 27.9 15.9 C28.9 16.5 29.9 17.2 30.9 17.9 C32.9 19.2 34.9 20.5 36.9 21.8 C42.2 25.3 47.3 28.3 53 31 C51.8 35.5 50.4 37.8 47 41 C33.3 33.2 20.1 24.9 7.3 15.7 C3.3 12.8 -0.9 9.9 -5 7 C-3.8 3.3 -3.3 2.2 0 0 Z " fill="#BED9EA" transform="translate(719,720)"/>
<path d="M0 0 C1.3 0.3 2.6 0.7 4 1 C4.2 2 4.4 3 4.7 4.1 C6.7 13.1 9.5 20.9 14 29 C14.7 30.3 15.3 31.7 16 33 C15.3 33 14.6 33 13.9 33 C10.8 33.1 7.7 33.2 4.6 33.3 C3.5 33.3 2.4 33.4 1.3 33.4 C-4.6 33.6 -9.6 34.2 -15.1 36.3 C-17.8 37.3 -20.2 37.2 -23 37 C-23 36.3 -23 35.7 -23 35 C-22.3 35 -21.7 35 -21 35 C-20.7 34.2 -20.4 33.5 -20.1 32.7 C-19 30 -19 30 -17 27 C-16.3 27 -15.7 27 -15 27 C-14.7 26.3 -14.5 25.5 -14.2 24.8 C-13.1 22.2 -11.8 19.9 -10.3 17.4 C-6.8 11.7 -3.4 5.8 0 0 Z " fill="#BED9EA" transform="translate(742,672)"/>
<path d="M0 0 C8.9 0.4 17.4 2.2 26.1 4 C31.7 5.2 37.4 6.1 43 7 C42.7 9.8 42.1 10.9 40 13 C36 15.6 31.9 17.3 27.4 19.1 C25.7 19.8 24.1 20.5 22.4 21.2 C21.6 21.5 20.9 21.8 20.1 22.1 C18 23 18 23 15.9 24.1 C14 25 14 25 11 25 C1 8.3 1 8.3 0 0 Z " fill="#BDD8EA" transform="translate(782,604)"/>
<path d="M0 0 C1 3 1 3 1.4 5.1 C2.2 9.1 3.4 12.9 4.7 16.7 C4.9 17.5 5.2 18.3 5.5 19.1 C7.3 24.6 9.6 29.4 13 34.2 C13.3 34.8 13.7 35.4 14 36 C13 39 13 39 9.9 40.8 C8.5 41.5 7.1 42.1 5.8 42.8 C4.3 43.5 2.8 44.2 1.4 44.9 C0.7 45.2 -0.1 45.6 -0.8 45.9 C-4.1 47.5 -7.3 49.3 -10.5 51 C-11.6 51.6 -12.6 52.2 -13.7 52.8 C-14.5 53.2 -15.2 53.6 -16 54 C-14.5 48 -12.7 42 -10.8 36.1 C-8.3 28.5 -6.3 21 -4.7 13.1 C-3.7 8.5 -1.9 4.3 0 0 Z " fill="#BED9EA" transform="translate(770,595)"/>
<path d="M0 0 C4.1 2.2 7.9 4.6 11.7 7.4 C17.1 11.4 22.7 15.1 28.4 18.8 C29.2 19.4 30.1 19.9 31 20.5 C34.3 22.7 37.7 24.8 41.1 26.8 C41.7 27.2 42.4 27.6 43 28 C43 28.3 43 28.7 43 29 C38.6 29.9 34.4 30.1 29.9 30.1 C28.9 30.1 28.9 30.1 27.9 30.1 C25.8 30.1 23.7 30.1 21.6 30.1 C20.2 30.1 18.8 30.1 17.4 30 C13.9 30 10.5 30 7 30 C6.2 28.1 5.4 26.3 4.6 24.4 C4.2 23.3 3.7 22.3 3.3 21.2 C1.1 15.8 -0.3 11.5 -0.1 5.6 C-0.1 4.6 -0.1 3.5 -0.1 2.4 C-0 1.6 -0 0.8 0 0 Z " fill="#BDD8EA" transform="translate(712,737)"/>
<path d="M0 0 C1.5 0.1 3.1 0.4 4.6 0.6 C5.6 0.8 6.6 0.9 7.6 1.1 C9.1 1.4 9.1 1.4 10.8 1.6 C11.8 1.8 12.9 2 14 2.2 C40.6 6.8 40.6 6.8 47 10 C46.7 13 46.3 15.9 46 19 C35.3 18 24.7 16.3 14.1 14.4 C12.3 14.1 12.3 14.1 10.4 13.8 C1.4 12.1 1.4 12.1 -2 11 C-1.9 9.4 -1.7 7.7 -1.6 6.1 C-1.5 5.1 -1.4 4.2 -1.3 3.3 C-1 1 -1 1 0 0 Z " fill="#BED9EA" transform="translate(783,586)"/>
<path d="M0 0 C12.6 4.8 23.7 12.8 35 20 C34 22 34 22 32.2 22.6 C31.1 22.8 31.1 22.8 29.9 23.1 C29.1 23.2 28.3 23.4 27.4 23.6 C26.5 23.8 25.6 23.9 24.7 24.1 C23.8 24.3 22.9 24.5 21.9 24.7 C15.2 25.9 8.9 26.5 2 26 C0.1 22.8 -0.2 20.5 -0.2 16.8 C-0.2 15.8 -0.2 14.8 -0.2 13.8 C-0.2 12.8 -0.1 11.8 -0.1 10.8 C-0.1 9.7 -0.1 8.7 -0.1 7.6 C-0.1 5.1 -0 2.5 0 0 Z " fill="#BDD9EA" transform="translate(663,797)"/>
<path d="M0 0 C0.7 0 1.3 0 2 0 C3.8 6.6 3.8 6.6 1.7 10.4 C-3.9 17.6 -10.6 24.5 -20 26 C-27.6 26.4 -34.7 26.3 -42 24 C-42 23 -42 22 -42 21 C-41.2 20.6 -40.4 20.3 -39.6 19.9 C-36.7 18.6 -33.7 17.2 -30.8 15.8 C-29.5 15.2 -28.2 14.7 -26.9 14.1 C-12.6 8.4 -12.6 8.4 0 0 Z " fill="#FFD2D7" transform="translate(419,806)"/>
<path d="M0 0 C-0.6 3.8 -1.7 6.7 -3.5 10 C-4 11 -4.4 11.9 -4.9 12.9 C-5.7 14.3 -5.7 14.3 -6.5 15.8 C-7.3 17.2 -7.3 17.2 -8.1 18.7 C-11.8 25.8 -11.8 25.8 -13 27 C-21.4 28.1 -29.7 23.8 -37 20 C-35.8 16.3 -34.2 15.8 -30.8 14.1 C-30 13.7 -29.3 13.4 -28.5 13 C-27.8 12.6 -27 12.2 -26.3 11.9 C-24.7 11.1 -23.1 10.3 -21.5 9.5 C-19.1 8.3 -16.6 7.1 -14.2 5.9 C-12.7 5.1 -11.1 4.4 -9.6 3.6 C-8.9 3.3 -8.1 2.9 -7.4 2.5 C-2.2 0 -2.2 0 0 0 Z " fill="#FFD2D7" transform="translate(296,611)"/>
<path d="M0 0 C0.8 0.4 1.6 0.9 2.4 1.3 C3 1.6 3.7 1.9 4.4 2.2 C6.4 3.4 7.9 4.5 9.4 6.3 C10.1 9.7 9.9 12.9 9.4 16.3 C9.3 17.4 9.3 17.4 9.1 18.4 C8 21.2 6.3 21.8 3.6 23.1 C2.8 23.6 1.9 24 1 24.4 C-2.7 25.7 -5 24.9 -8.6 23.6 C-10.9 22.4 -12.1 21.5 -13.6 19.3 C-14.2 14.6 -14 10 -13.6 5.3 C-11.9 4.2 -10.2 3.2 -8.4 2.2 C-7.5 1.6 -6.5 1 -5.5 0.4 C-2.6 -0.7 -2.6 -0.7 0 0 Z " fill="#FF9E07" transform="translate(508.625,752.6953125)"/>
<path d="M0 0 C2 1.8 3.4 3.8 5 6 C5 6.7 5 7.3 5 8 C4.1 8.5 3.2 8.9 2.2 9.4 C1.6 9.7 1 10 0.3 10.3 C-1.1 11 -2.5 11.7 -3.9 12.4 C-8.1 14.5 -12.2 16.6 -16.4 18.7 C-17.3 19.2 -18.2 19.6 -19.1 20.1 C-20.9 21 -22.7 21.9 -24.4 22.8 C-25.7 23.4 -25.7 23.4 -26.9 24 C-27.6 24.4 -28.3 24.7 -29.1 25.1 C-31 26 -31 26 -34 27 C-34.7 24 -35.3 21.1 -36 18 C-28.2 12.5 -20.2 7.4 -11.8 2.8 C-11.1 2.4 -10.4 2 -9.6 1.6 C-3.9 -1.4 -3.9 -1.4 0 0 Z " fill="#FFD2D7" transform="translate(288,597)"/>
<path d="M0 0 C10.2 0 20.5 0 31 0 C35 9 37.4 14.4 37 24 C33.4 22.7 30.3 21 27.1 19 C26.1 18.4 25.2 17.8 24.2 17.1 C23.3 16.5 22.3 15.9 21.3 15.2 C19.4 14 17.5 12.8 15.6 11.6 C14.7 11 13.8 10.4 12.8 9.8 C9.2 7.5 5.5 5.4 1.8 3.3 C1.2 2.8 0.6 2.4 0 2 C0 1.3 0 0.7 0 0 Z " fill="#BED9EA" transform="translate(733,715)"/>
<path d="M0 0 C1.7 1 3.3 2.1 5 3.2 C4.8 5 4.8 5 4 7.2 C-3.7 13 -13 16.7 -21.7 20.7 C-22.8 21.2 -24 21.7 -25.2 22.3 C-33.8 26.2 -33.8 26.2 -36 26.2 C-36 23.2 -36 20.3 -36 17.2 C-27.6 12.3 -19 7.5 -10.3 3 C-9.5 2.6 -8.8 2.2 -8 1.8 C-7.3 1.4 -6.6 1.1 -5.8 0.7 C-5.2 0.3 -4.6 0 -3.9 -0.3 C-2 -0.8 -2 -0.8 0 0 Z " fill="#FFD2D7" transform="translate(413.0478515625,793.783935546875)"/>
<path d="M0 0 C0.9 -0 1.8 -0 2.7 -0 C9 0 13.9 1.4 18.6 5.7 C18.6 6.3 18.6 7 18.6 7.7 C19.6 8 20.5 8.3 21.6 8.7 C23.6 11.6 24.6 13.1 24.6 16.7 C20.2 16.3 16.1 15.6 11.9 14.4 C5.2 12.5 -1.5 11.3 -8.4 10.1 C-9.2 10 -10.1 9.8 -11 9.7 C-12.2 9.4 -12.2 9.4 -13.5 9.2 C-15.4 8.7 -15.4 8.7 -17.4 6.7 C-12.1 0.8 -7.8 -0.2 0 0 Z " fill="#BED9EA" transform="translate(805.4375,572.3125)"/>
<path d="M0 0 C5.3 1.7 10.5 3.5 15.5 6 C16.5 6.5 17.5 7 18.6 7.5 C21 9 21 9 22 12 C18.3 14.1 14.5 16.3 10.8 18.4 C9.7 19 8.6 19.6 7.5 20.2 C6.5 20.8 5.5 21.4 4.4 22 C3.5 22.5 2.5 23 1.6 23.6 C-0.6 24.8 -2.8 25.9 -5 27 C-5.3 20.6 -4.3 15.2 -2.5 9 C-2.3 8.1 -2 7.3 -1.8 6.4 C-1.2 4.2 -0.6 2.1 0 0 Z " fill="#FFD3D7" transform="translate(257,580)"/>
<path d="M0 0 C8.9 0 17.8 0 27 0 C21.4 5.6 21.4 5.6 18.2 8.2 C17.5 8.7 16.9 9.3 16.2 9.8 C15.5 10.4 14.8 10.9 14.1 11.5 C12.7 12.6 11.3 13.7 9.9 14.8 C9.3 15.4 8.6 15.9 7.9 16.4 C6.1 17.9 4.3 19.4 2.6 20.9 C0 23 0 23 -1 23 C-1 20.3 -1 17.6 -1.1 14.9 C-1.1 14.1 -1.1 13.4 -1.1 12.6 C-1.1 11.8 -1.1 11.1 -1.1 10.3 C-1.1 9.6 -1.1 8.9 -1.1 8.2 C-1 5.5 -0.5 2.7 0 0 Z " fill="#FFD2D7" transform="translate(317,741)"/>
<path d="M0 0 C4.1 3.7 4.1 3.7 4.5 6.9 C4.3 9 3.9 10.8 3.3 12.9 C3 13.9 2.7 14.9 2.4 15.9 C-0.2 18.3 -1.5 18.3 -5.1 18.6 C-8.9 18.4 -11.5 17.9 -14.5 15.4 C-16.5 12.8 -17.1 11.1 -16.9 7.8 C-16 3.7 -14.2 1.4 -10.7 -1.1 C-6.7 -2.5 -3.6 -2.3 0 0 Z " fill="#FE6721" transform="translate(538.73828125,614.12890625)"/>
<path d="M0 0 C0 2.2 0 4.4 0.1 6.6 C0.1 7.9 0.1 9.1 0.1 10.4 C0 13.7 -0.4 16.7 -1 20 C-2 20.1 -3 20.2 -4 20.4 C-12.4 21.4 -12.4 21.4 -20.6 23.1 C-23.9 24 -26.6 24.2 -30 24 C-26.3 20.2 -22.5 16.9 -18.3 13.7 C-17.1 12.7 -15.8 11.8 -14.6 10.8 C-14 10.3 -13.4 9.9 -12.8 9.4 C-9.4 6.8 -6.1 4.1 -2.8 1.4 C-1 0 -1 0 0 0 Z " fill="#FFD2D7" transform="translate(379,756)"/>
<path d="M0 0 C2.9 2 2.9 2 5 5 C5.2 8.7 4.7 11.7 3 15 C-0.3 17.5 -3.6 18 -7.7 18.1 C-11.2 16.5 -13.6 14.5 -15 11 C-14.8 7.5 -14 4.3 -13 1 C-11.6 0.4 -10.2 -0.1 -8.8 -0.6 C-8 -0.9 -7.2 -1.2 -6.4 -1.5 C-3.4 -2.1 -2.5 -1.6 0 0 Z " fill="#FFA00A" transform="translate(507,677)"/>
<path d="M0 0 C8.2 0.3 16.5 0.7 25 1 C28.4 11.1 28.4 11.1 28.7 15.6 C28.8 16.8 28.8 16.8 28.9 18.1 C28.9 18.7 29 19.4 29 20 C23.8 17.6 19.2 14.3 14.5 11.1 C13.1 10.2 13.1 10.2 11.6 9.2 C10.2 8.3 10.2 8.3 8.8 7.4 C7.6 6.6 7.6 6.6 6.3 5.7 C4 4 4 4 0 0 Z " fill="#BFD9EA" transform="translate(687,776)"/>
<path d="M0 0 C2.3 2.4 2.3 2.4 4.6 5.6 C5.8 7.1 5.8 7.1 7 8.7 C9.1 12.2 10.1 15 11 19 C6.3 17.3 1.7 15.7 -3 14 C-3.8 13.7 -4.6 13.4 -5.5 13.1 C-9.5 11.7 -13.2 10 -17 8 C-14.6 5.4 -12.2 3.9 -9.1 2.3 C-7.8 1.7 -7.8 1.7 -6.5 1 C-4 0 -4 0 0 0 Z " fill="#BFDAEB" transform="translate(792,641)"/>
<path d="M0 0 C7.1 -0.5 12.4 1.3 19 4 C15.8 6.9 12.5 8.9 8.7 10.9 C4.3 13.2 0.4 15.8 -3.4 18.9 C-5 20 -5 20 -7 20 C-5.1 13.1 -2.8 6.6 0 0 Z " fill="#FFD3D8" transform="translate(288,649)"/>
<path d="M0 0 C7.3 -0.4 13.2 0.2 20 3 C17.7 5.6 15.3 7.1 12.2 8.7 C11.3 9.2 10.3 9.7 9.4 10.2 C8.4 10.7 7.4 11.2 6.4 11.7 C5.5 12.2 4.5 12.7 3.5 13.2 C-3.7 17 -3.7 17 -6 17 C-4.1 11.3 -2.1 5.6 0 0 Z " fill="#FFD2D7" transform="translate(385,785)"/>
<path d="M0 0 C1.7 3.3 -0 6.7 -0.9 10.1 C-1.1 10.9 -1.3 11.6 -1.5 12.4 C-2 14.3 -2.5 16.1 -3 18 C-6.8 17.4 -10.3 16.7 -13.9 15.4 C-14.7 15.2 -15.4 14.9 -16.2 14.6 C-16.8 14.4 -17.4 14.2 -18 14 C-18 13.3 -18 12.7 -18 12 C-15.6 10.2 -13.2 8.6 -10.7 7 C-9.7 6.3 -9.7 6.3 -8.6 5.6 C-7.3 4.8 -6 3.9 -4.7 3.1 C-3.1 2.1 -1.6 1 0 0 Z " fill="#FFD4D8" transform="translate(314,712)"/>
</svg>
